<svg width="137" height="80" viewBox="0 0 137 80" fill="none" xmlns="http://www.w3.org/2000/svg">
  <path d="M86.2027 20.2285C86.2027 19.5204 86.7767 18.9463 87.4849 18.9463H90.5096H99.1235H108.455H117.787H126.76H130.861C131.569 18.9463 132.143 19.5204 132.143 20.2285V26.278C132.143 26.9861 131.569 27.5602 130.861 27.5602H126.76H117.787H108.455H99.1235H90.5096H87.4849C86.7767 27.5602 86.2027 26.9861 86.2027 26.278V20.2285Z" stroke="black" stroke-width="1.43564" stroke-linecap="round" stroke-linejoin="round"/>
  <path d="M81.8958 37.4551C81.8958 36.747 82.4699 36.1729 83.178 36.1729H86.2027H94.8166H104.148H113.48H122.453H126.554C127.262 36.1729 127.836 36.747 127.836 37.4551V43.5046C127.836 44.2127 127.262 44.7868 126.554 44.7868H122.453H113.48H104.148H94.8166H86.2027H83.178C82.4699 44.7868 81.8958 44.2127 81.8958 43.5046V37.4551Z" stroke="black" stroke-width="1.43564" stroke-linecap="round" stroke-linejoin="round"/>
  <path d="M80.4605 3C80.4605 2.29187 81.0345 1.71782 81.7427 1.71782H84.7674H93.3813H102.713H112.045H121.017H125.119C125.827 1.71782 126.401 2.29187 126.401 3V9.0495C126.401 9.75763 125.827 10.3317 125.119 10.3317H121.017H112.045H102.713H93.3813H84.7674H81.7427C81.0345 10.3317 80.4605 9.75763 80.4605 9.04951V3Z" stroke="black" stroke-width="1.43564" stroke-linecap="round" stroke-linejoin="round"/>
  <path d="M80.4605 54.6836C80.4605 53.9755 81.0345 53.4014 81.7427 53.4014H90.51H100.56H110.609H122.094H125.119C125.827 53.4014 126.401 53.9755 126.401 54.6836V60.7331C126.401 61.4412 125.827 62.0153 125.119 62.0153H122.094H110.609H100.56H90.51H81.7427C81.0345 62.0153 80.4605 61.4412 80.4605 60.7331V54.6836Z" stroke="black" stroke-width="1.43564" stroke-linecap="round" stroke-linejoin="round"/>
  <path d="M80.4605 71.9102C80.4605 71.202 81.0345 70.628 81.7427 70.628H88.3565H96.9704H107.738H118.505H125.119C125.827 70.628 126.401 71.202 126.401 71.9102V77.9597C126.401 78.6678 125.827 79.2418 125.119 79.2418H118.505H107.738H96.9704H88.3565H81.7427C81.0345 79.2418 80.4605 78.6678 80.4605 77.9597V71.9102Z" stroke="black" stroke-width="1.43564" stroke-linecap="round" stroke-linejoin="round"/>
  <path d="M84.7674 11.6133C84.7674 10.9052 85.3414 10.3311 86.0496 10.3311H89.0743H97.6882H107.02H116.352H125.324H129.426C130.134 10.3311 130.708 10.9052 130.708 11.6133V17.6628C130.708 18.3709 130.134 18.945 129.426 18.945H125.324H116.352H107.02H97.6882H89.0743H86.0496C85.3414 18.945 84.7674 18.3709 84.7674 17.6628V11.6133Z" fill="#F9D607" stroke="black" stroke-width="1.43564" stroke-linecap="round" stroke-linejoin="round"/>
  <path d="M80.4605 28.8418C80.4605 28.1337 81.0345 27.5596 81.7427 27.5596H84.7674H93.3813H102.713H112.045H121.017H125.119C125.827 27.5596 126.401 28.1337 126.401 28.8418V34.8913C126.401 35.5994 125.827 36.1735 125.119 36.1735H121.017H112.045H102.713H93.3813H84.7674H81.7427C81.0345 36.1735 80.4605 35.5994 80.4605 34.8913V28.8418Z" fill="#F9D607" stroke="black" stroke-width="1.43564" stroke-linecap="round" stroke-linejoin="round"/>
  <path d="M74.7178 46.0703C74.7178 45.3622 75.2919 44.7881 76 44.7881H79.0248H87.6386H96.9703H106.302H115.275H119.376C120.084 44.7881 120.658 45.3622 120.658 46.0703V52.1198C120.658 52.8279 120.084 53.402 119.376 53.402H115.275H106.302H96.9703H87.6386H79.0248H76C75.2919 53.402 74.7178 52.8279 74.7178 52.1198V46.0703Z" fill="#F9D607" stroke="black" stroke-width="1.43564" stroke-linecap="round" stroke-linejoin="round"/>
  <path d="M80.4605 63.2969C80.4605 62.5887 81.0345 62.0147 81.7427 62.0147H84.7674H93.3813H102.713H112.045H121.017H125.119C125.827 62.0147 126.401 62.5887 126.401 63.2969V69.3464C126.401 70.0545 125.827 70.6286 125.119 70.6286H121.017H112.045H102.713H93.3813H84.7674H81.7427C81.0345 70.6286 80.4605 70.0545 80.4605 69.3464V63.2969Z" fill="#F9D607" stroke="black" stroke-width="1.43564" stroke-linecap="round" stroke-linejoin="round"/>
  <path d="M126.4 7.92593L128 1L129.92 7.92593L136 9.18518L129.28 11.0741L128 18L126.4 11.0741L120 9.18518L126.4 7.92593Z" fill="white" stroke="black" stroke-width="1.44" stroke-linecap="round" stroke-linejoin="round"/>
  <path d="M0.717822 28.8418C0.717822 28.1337 1.29187 27.5596 2 27.5596H5.02475H13.6386H22.9703H32.302H41.2748H45.3762C46.0844 27.5596 46.6584 28.1337 46.6584 28.8418V34.8913C46.6584 35.5994 46.0844 36.1735 45.3762 36.1735H41.2748H32.302H22.9703H13.6386H5.02475H2C1.29187 36.1735 0.717822 35.5994 0.717822 34.8913V28.8418Z" fill="#BC92C0" stroke="black" stroke-width="1.43564" stroke-linecap="round" stroke-linejoin="round"/>
  <path d="M9.33159 46.0703C9.33159 45.3622 9.90564 44.7881 10.6138 44.7881H13.6385H22.2524H31.5841H40.9157H49.8885H53.99C54.6981 44.7881 55.2722 45.3622 55.2722 46.0703V52.1198C55.2722 52.8279 54.6981 53.402 53.99 53.402H49.8885H40.9157H31.5841H22.2524H13.6385H10.6138C9.90564 53.402 9.33159 52.8279 9.33159 52.1198V46.0703Z" fill="#BC92C0" stroke="black" stroke-width="1.43564" stroke-linecap="round" stroke-linejoin="round"/>
  <path d="M7.89604 63.2969C7.89604 62.5887 8.4701 62.0147 9.17822 62.0147H17.9455H27.9951H38.0446H49.5297H52.5545C53.2626 62.0147 53.8366 62.5887 53.8366 63.2969V69.3464C53.8366 70.0545 53.2626 70.6286 52.5545 70.6286H49.5297H38.0446H27.9951H17.9455H9.17822C8.47009 70.6286 7.89604 70.0545 7.89604 69.3464V63.2969Z" fill="#BC92C0" stroke="black" stroke-width="1.43564" stroke-linecap="round" stroke-linejoin="round"/>
  <path d="M5.02471 37.4551C5.02471 36.747 5.59876 36.1729 6.30688 36.1729H9.33164H17.9455H27.2772H36.6089H45.5816H49.6831C50.3913 36.1729 50.9653 36.747 50.9653 37.4551V43.5046C50.9653 44.2127 50.3913 44.7868 49.6831 44.7868H45.5816H36.6089H27.2772H17.9455H9.33164H6.30689C5.59876 44.7868 5.02471 44.2127 5.02471 43.5046V37.4551Z" fill="#F9D607" stroke="black" stroke-width="1.43564" stroke-linecap="round" stroke-linejoin="round"/>
  <path d="M12.2029 54.6836C12.2029 53.9755 12.777 53.4014 13.4851 53.4014H16.5099H25.1237H34.4554H43.7871H52.7599H56.8613C57.5695 53.4014 58.1435 53.9755 58.1435 54.6836V60.7331C58.1435 61.4412 57.5695 62.0153 56.8613 62.0153H52.7599H43.7871H34.4554H25.1237H16.5099H13.4851C12.777 62.0153 12.2029 61.4412 12.2029 60.7331V54.6836Z" fill="#F9D607" stroke="black" stroke-width="1.43564" stroke-linecap="round" stroke-linejoin="round"/>
  <path d="M7.89604 71.9102C7.89604 71.202 8.4701 70.628 9.17822 70.628H12.203H20.8168H30.1485H39.4802H48.453H52.5545C53.2626 70.628 53.8366 71.202 53.8366 71.9102V77.9597C53.8366 78.6678 53.2626 79.2418 52.5545 79.2418H48.453H39.4802H30.1485H20.8168H12.203H9.17822C8.4701 79.2418 7.89604 78.6678 7.89604 77.9597V71.9102Z" fill="#F9D607" stroke="black" stroke-width="1.43564" stroke-linecap="round" stroke-linejoin="round"/>
  <path d="M21.6 11.1852L24 1L26.88 11.1852L36 13.037L25.92 15.8148L24 26L21.6 15.8148L12 13.037L21.6 11.1852Z" fill="white" stroke="black" stroke-width="1.44" stroke-linecap="round" stroke-linejoin="round"/>
</svg>
