<svg width="128" height="100" viewBox="0 0 128 100" fill="none" xmlns="http://www.w3.org/2000/svg">
  <path
    d="M27.4214 23.789L16.4374 30.1767L3.51515 30.1767L3.51515 86.1238H15.1452L21.391 91.1899L32.1596 91.1899L39.0515 97.5776L73.5109 97.5776L78.6798 91.1899L84.2795 91.1899V80.6172L90.3099 72.6877V61.6745L95.6942 56.6084V44.4939L117.662 44.4939L125.631 39.4278V33.0401L120.462 26.8727L67.9113 26.8727L67.9113 20.9256L72.4341 16.0798V2.20313L60.1579 2.20313L56.9273 8.81105L47.451 14.5379L37.1131 19.1635L27.4214 23.789Z"
    fill="white" />
  <rect x="120.969" y="25.2198" width="2.86344" height="72.5166"
    transform="rotate(90 120.969 25.2198)" fill="black" stroke="black" stroke-width="2.86344" />
  <rect x="120.969" y="42.8419" width="2.86344" height="49.2565"
    transform="rotate(90 120.969 42.8419)" fill="black" stroke="black" stroke-width="2.86344" />
  <rect x="123.8" y="30.9155" width="2.79983" height="9.09444" fill="black" stroke="black"
    stroke-width="2.79983" />
  <rect x="94.5093" y="48.5366" width="2.79983" height="9.09445" fill="black" stroke="black"
    stroke-width="2.79983" />
  <rect x="88.9097" y="60.4312" width="2.79983" height="14.8213" fill="black" stroke="black"
    stroke-width="2.79983" />
  <rect x="86.078" y="60.463" width="2.86343" height="14.3663" transform="rotate(90 86.078 60.463)"
    fill="black" stroke="black" stroke-width="2.86343" />
  <rect x="68.8486" y="1.43172" width="2.86344" height="9.19737"
    transform="rotate(90 68.8486 1.43172)" fill="black" stroke="black" stroke-width="2.86344" />
  <rect x="56.8198" y="7.12648" width="2.92704" height="2.79983"
    transform="rotate(90 56.8198 7.12648)" fill="black" stroke="black" stroke-width="2.79983" />
  <rect x="51.1884" y="12.8858" width="2.86344" height="8.33589"
    transform="rotate(90 51.1884 12.8858)" fill="black" stroke="black" stroke-width="2.86344" />
  <rect x="39.9892" y="18.6124" width="2.86344" height="8.76663"
    transform="rotate(90 39.9892 18.6124)" fill="black" stroke="black" stroke-width="2.86344" />
  <rect x="28.3593" y="24.3389" width="2.86344" height="8.76663"
    transform="rotate(90 28.3593 24.3389)" fill="black" stroke="black" stroke-width="2.86344" />
  <rect x="16.7284" y="30.0665" width="2.86344" height="14.797"
    transform="rotate(90 16.7284 30.0665)" fill="black" stroke="black" stroke-width="2.86344" />
  <rect x="82.8794" y="78.0523" width="2.79983" height="14.8213" fill="black" stroke="black"
    stroke-width="2.79983" />
  <rect x="77.2798" y="89.9458" width="2.79983" height="2.92704" fill="black" stroke="black"
    stroke-width="2.79983" />
  <rect x="66.0806" y="19.4614" width="2.79983" height="2.92704" fill="black" stroke="black"
    stroke-width="2.79983" />
  <rect x="71.6802" y="1.39991" width="2.79983" height="15.2618" fill="black" stroke="black"
    stroke-width="2.79983" />
  <rect x="19.5919" y="89.9776" width="14.797" height="2.86344" fill="black" stroke="black"
    stroke-width="2.86344" />
  <rect x="1.93172" y="84.2511" width="14.797" height="2.86344" fill="black" stroke="black"
    stroke-width="2.86344" />
  <rect x="1.89992" y="81.4194" width="45.6583" height="2.79983"
    transform="rotate(-90 1.89992 81.4194)" fill="black" stroke="black" stroke-width="2.79983" />
  <rect x="37.253" y="95.7052" width="37.1957" height="2.86344" fill="black" stroke="black"
    stroke-width="2.86344" />
  <rect x="80.0478" y="78.0841" width="2.86343" height="14.3663"
    transform="rotate(90 80.0478 78.0841)" fill="black" stroke="black" stroke-width="2.86343" />
</svg>