<svg width="72" height="76" viewBox="0 0 72 76" fill="none" xmlns="http://www.w3.org/2000/svg">
  <g filter="url(#filter0_d_25993_38557)">
    <path d="M4 0H68C70.2092 0 72 1.79088 72 4V68C72 70.2092 70.2092 72 68 72H4C1.79088 72 0 70.2092 0 68V4C0 1.79088 1.79088 0 4 0ZM8 8V64H64V8H8ZM32.0104 52L15.04 35.0296L20.6968 29.3724L32.0104 40.6864L54.638 18.0589L60.2948 23.7157L32.0104 52Z" fill="#8EF59B"/>
    <path d="M8 7.5H7.5V8V64V64.5H8H64H64.5V64V8V7.5H64H8ZM32.364 41.04L54.638 18.766L59.5877 23.7157L32.0104 51.2929L15.7471 35.0296L20.6968 30.0795L31.6568 41.0399L32.0104 41.3935L32.364 41.04ZM4 0.5H68C69.9331 0.5 71.5 2.06702 71.5 4V68C71.5 69.9331 69.9331 71.5 68 71.5H4C2.06702 71.5 0.5 69.9331 0.5 68V4C0.5 2.06702 2.06702 0.5 4 0.5Z" stroke="#3C38F5"/>
  </g>
  <defs>
    <filter id="filter0_d_25993_38557" x="0" y="0" width="72" height="76" filterUnits="userSpaceOnUse" color-interpolation-filters="sRGB">
      <feFlood flood-opacity="0" result="BackgroundImageFix"/>
      <feColorMatrix in="SourceAlpha" type="matrix" values="0 0 0 0 0 0 0 0 0 0 0 0 0 0 0 0 0 0 127 0" result="hardAlpha"/>
      <feOffset dy="4"/>
      <feComposite in2="hardAlpha" operator="out"/>
      <feColorMatrix type="matrix" values="0 0 0 0 0 0 0 0 0 0 0 0 0 0 0 0 0 0 0.25 0"/>
      <feBlend mode="normal" in2="BackgroundImageFix" result="effect1_dropShadow_25993_38557"/>
      <feBlend mode="normal" in="SourceGraphic" in2="effect1_dropShadow_25993_38557" result="shape"/>
    </filter>
  </defs>
</svg>
