
<svg width="36" height="36" viewBox="0 0 36 36" fill="none" xmlns="http://www.w3.org/2000/svg">
  <path d="M18 36C27.9411 36 36 27.9411 36 18C36 8.05887 27.9411 0 18 0C8.05887 0 0 8.05887 0 18C0 27.9411 8.05887 36 18 36Z" fill="#06E694"/>
  <path fill-rule="evenodd" clip-rule="evenodd" d="M27.0007 22.4991C27.0007 20.0137 24.9859 17.9989 22.5005 17.9989C20.0189 17.9989 18.0065 20.0076 18.0003 22.4877C17.9942 20.0114 15.9879 18.005 13.5115 17.9989C15.9917 17.9928 18.0003 15.9803 18.0003 13.4988C18.0003 11.0134 15.9855 8.99861 13.5002 8.99861C11.0148 8.99861 9 11.0134 9 13.4988C9 15.9804 11.0087 17.9928 13.4888 17.9989C11.0087 18.0051 9.00004 20.0175 9.00004 22.4991C9.00004 24.9844 11.0148 26.9992 13.5002 26.9992C15.9818 26.9992 17.9942 24.9906 18.0003 22.5104C18.0065 24.9906 20.0189 26.9993 22.5005 26.9993C24.9859 26.9993 27.0007 24.9845 27.0007 22.4991ZM22.5005 17.9989C20.0151 17.9989 18.0003 15.9841 18.0003 13.4988C18.0003 11.0134 20.0151 8.99861 22.5005 8.99861C24.9859 8.99861 27.0007 11.0134 27.0007 13.4988C27.0007 15.9841 24.9859 17.9989 22.5005 17.9989Z" fill="white"/>
  </svg>
  