 <svg width="21" height="20" viewBox="0 0 21 20" fill="none" xmlns="http://www.w3.org/2000/svg">
<path d="M4.65604 9.50605C4.65606 9.39421 4.67813 9.28347 4.72099 9.18021C4.76384 9.07694 4.82663 8.98316 4.90575 8.90428C4.98488 8.82539 5.07877 8.76293 5.18205 8.7205C5.28534 8.67807 5.39597 8.6565 5.50759 8.65702L6.91937 8.66164C7.14447 8.66164 7.36035 8.75123 7.51952 8.9107C7.6787 9.07017 7.76812 9.28646 7.76812 9.51199V14.8607C7.92712 14.8135 8.13062 14.7631 8.35454 14.7103C8.50968 14.6737 8.64795 14.5857 8.74691 14.4606C8.84588 14.3354 8.89975 14.1804 8.89978 14.0208V7.38653C8.89978 7.16099 8.9892 6.94468 9.14837 6.78518C9.30753 6.62569 9.52341 6.53606 9.74853 6.53602H11.1646C11.3897 6.53606 11.6056 6.62569 11.7648 6.78518C11.9239 6.94468 12.0133 7.16099 12.0133 7.38653V13.5442C12.0133 13.5442 12.3676 13.4005 12.7125 13.2546C12.8406 13.2003 12.95 13.1094 13.0269 12.9932C13.1038 12.8771 13.1449 12.7408 13.145 12.6014V5.26058C13.145 5.03508 13.2344 4.81881 13.3935 4.65935C13.5527 4.49988 13.7685 4.41027 13.9936 4.41023H15.4082C15.6331 4.41045 15.8488 4.50013 16.0078 4.65958C16.1668 4.81903 16.2561 5.03519 16.2561 5.26058V11.3055C17.4825 10.415 18.7254 9.34393 19.7117 8.05611C19.8548 7.86917 19.9495 7.64966 19.9873 7.41714C20.0252 7.18463 20.005 6.94634 19.9286 6.72355C19.472 5.40752 18.7462 4.20148 17.7977 3.18259C16.8492 2.1637 15.6989 1.35441 14.4203 0.806507C13.1417 0.258602 11.763 -0.0158526 10.3725 0.000707133C8.98191 0.0172668 7.61013 0.324475 6.34489 0.902674C5.07965 1.48087 3.94882 2.31733 3.02476 3.35852C2.1007 4.3997 1.40376 5.62269 0.97854 6.94922C0.553317 8.27576 0.409177 9.67662 0.555342 11.0622C0.701508 12.4477 1.13476 13.7874 1.82738 14.9956C1.94804 15.204 2.12558 15.3736 2.33911 15.4844C2.55265 15.5952 2.79332 15.6427 3.03286 15.6213C3.30045 15.5976 3.63362 15.5643 4.02974 15.5177C4.20214 15.4981 4.3613 15.4156 4.47691 15.286C4.59253 15.1564 4.65652 14.9887 4.6567 14.8148V9.50605" fill="white"/>
<path d="M4.62598 18.0844C6.11705 19.1712 7.87913 19.8235 9.71728 19.9692C11.5554 20.115 13.398 19.7484 15.0411 18.91C16.6842 18.0717 18.0638 16.7943 19.0272 15.2192C19.9907 13.6441 20.5004 11.8326 20.5001 9.98524C20.5001 9.75412 20.4894 9.52663 20.474 9.2998C16.8222 14.7567 10.0793 17.3077 4.62598 18.0844Z" fill="#F0B90B"/>
</svg>
