<svg class="icon" style="width: 1em;height: 1em;vertical-align: middle;fill: #ccc;overflow: hidden;" viewBox="0 0 1024 1024" version="1.1" xmlns="http://www.w3.org/2000/svg" p-id="1683">
  <path d="M139.636364 837.818182c0 13.963636 9.309091 23.272727 23.272727 23.272727h46.545454c0 13.963636 9.309091 23.272727 23.272728 23.272727s23.272727-9.309091 23.272727-23.272727h23.272727c39.563636 0 69.818182-30.254545 69.818182-69.818182 0-25.6-13.963636-46.545455-32.581818-58.181818 4.654545-11.636364 9.309091-23.272727 9.309091-34.909091 0-39.563636-30.254545-69.818182-69.818182-69.818182 0-13.963636-9.309091-23.272727-23.272727-23.272727s-23.272727 9.309091-23.272728 23.272727H162.909091c-13.963636 0-23.272727 9.309091-23.272727 23.272728s9.309091 23.272727 23.272727 23.272727v139.636364c-13.963636 0-23.272727 9.309091-23.272727 23.272727z m69.818181-162.909091h46.545455c13.963636 0 23.272727 9.309091 23.272727 23.272727s-9.309091 23.272727-23.272727 23.272727H209.454545v-46.545454z m0 93.090909h69.818182c13.963636 0 23.272727 9.309091 23.272728 23.272727s-9.309091 23.272727-23.272728 23.272728H209.454545v-46.545455z" p-id="1684"></path>
  <path d="M814.545455 628.363636m-23.272728 0a23.272727 23.272727 0 1 0 46.545455 0 23.272727 23.272727 0 1 0-46.545455 0Z" p-id="1685"></path>
  <path d="M779.636364 442.181818h93.090909c6.981818 0 11.636364-4.654545 11.636363-11.636363s-4.654545-11.636364-11.636363-11.636364h-93.090909c-6.981818 0-11.636364 4.654545-11.636364 11.636364s4.654545 11.636364 11.636364 11.636363zM477.090909 395.636364h176.872727c4.654545 13.963636 18.618182 23.272727 32.581819 23.272727 18.618182 0 34.909091-16.290909 34.90909-34.909091s-16.290909-34.909091-34.90909-34.909091c-16.290909 0-27.927273 9.309091-32.581819 23.272727h-176.872727c-6.981818 0-11.636364 4.654545-11.636364 11.636364s4.654545 11.636364 11.636364 11.636364z m209.454546-23.272728c6.981818 0 11.636364 4.654545 11.636363 11.636364s-4.654545 11.636364-11.636363 11.636364-11.636364-4.654545-11.636364-11.636364 4.654545-11.636364 11.636364-11.636364zM663.272727 837.818182c-18.618182 0-34.909091 16.290909-34.909091 34.909091s16.290909 34.909091 34.909091 34.909091c16.290909 0 27.927273-9.309091 32.581818-23.272728h130.327273c6.981818 0 11.636364-4.654545 11.636364-11.636363s-4.654545-11.636364-11.636364-11.636364h-130.327273c-4.654545-13.963636-16.290909-23.272727-32.581818-23.272727z m0 46.545454c-6.981818 0-11.636364-4.654545-11.636363-11.636363s4.654545-11.636364 11.636363-11.636364 11.636364 4.654545 11.636364 11.636364-4.654545 11.636364-11.636364 11.636363z" p-id="1686"></path>
  <path d="M977.454545 516.654545V349.090909c0-37.236364-30.254545-69.818182-69.818181-69.818182-34.909091-72.145455-107.054545-116.363636-186.181819-116.363636-6.981818 0-13.963636 0-20.945454 2.327273C665.6 95.418182 595.781818 46.545455 512 46.545455c-65.163636 0-123.345455 30.254545-160.581818 76.8-16.290909-4.654545-32.581818-6.981818-48.872727-6.981819-100.072727 0-183.854545 69.818182-204.8 165.236364C67.490909 290.909091 46.545455 316.509091 46.545455 349.090909v256c-27.927273 39.563636-46.545455 86.109091-46.545455 139.636364s18.618182 100.072727 46.545455 139.636363v23.272728c0 39.563636 30.254545 69.818182 69.818181 69.818181h791.272728c39.563636 0 69.818182-30.254545 69.818181-69.818181v-167.563637c27.927273-9.309091 46.545455-34.909091 46.545455-65.163636v-93.090909c0-30.254545-18.618182-55.854545-46.545455-65.163637zM721.454545 209.454545c53.527273 0 104.727273 25.6 132.654546 69.818182h-134.981818c0-6.981818 2.327273-16.290909 2.327272-23.272727 0-16.290909-2.327273-30.254545-4.654545-46.545455h4.654545z m-209.454545-116.363636c90.763636 0 162.909091 72.145455 162.909091 162.909091 0 6.981818 0 16.290909-2.327273 23.272727H351.418182c-2.327273-6.981818-2.327273-16.290909-2.327273-23.272727 0-90.763636 72.145455-162.909091 162.909091-162.909091z m-209.454545 69.818182c6.981818 0 13.963636 0 20.945454 2.327273-13.963636 27.927273-20.945455 58.181818-20.945454 90.763636 0 6.981818 0 16.290909 2.327272 23.272727H146.618182c20.945455-67.490909 83.781818-116.363636 155.927273-116.363636z m-209.454546 186.181818c0-13.963636 9.309091-23.272727 23.272727-23.272727h791.272728c13.963636 0 23.272727 9.309091 23.272727 23.272727v162.909091h-162.909091c-9.309091 0-16.290909 2.327273-25.6 4.654545l-34.909091-34.90909c-9.309091-9.309091-25.6-16.290909-39.563636-16.29091h-169.890909c-9.309091 0-18.618182-4.654545-25.6-9.30909l-65.163637-65.163637c-11.636364-11.636364-27.927273-18.618182-41.890909-18.618182H93.090909v-23.272727z m0 46.545455h272.290909c9.309091 0 18.618182 4.654545 25.6 9.309091l65.163637 65.163636c11.636364 11.636364 25.6 16.290909 41.890909 16.290909h169.890909c9.309091 0 18.618182 4.654545 25.6 9.309091l30.254545 30.254545c-9.309091 6.981818-16.290909 18.618182-20.945454 30.254546h-125.672728c-16.290909 0-30.254545 6.981818-41.890909 16.290909l-18.618182 18.618182c-6.981818 6.981818-16.290909 9.309091-25.6 9.309091H418.909091c-41.890909-55.854545-109.381818-93.090909-186.181818-93.090909-53.527273 0-100.072727 18.618182-139.636364 46.545454v-93.090909h165.236364c4.654545 13.963636 18.618182 23.272727 32.581818 23.272727 18.618182 0 34.909091-16.290909 34.909091-34.909091s-16.290909-30.254545-34.909091-30.254545c-16.290909 0-27.927273 9.309091-32.581818 23.272727H93.090909v-46.545454z m186.181818 58.181818c0-6.981818 4.654545-11.636364 11.636364-11.636364s11.636364 4.654545 11.636364 11.636364-4.654545 11.636364-11.636364 11.636363-11.636364-4.654545-11.636364-11.636363zM232.727273 558.545455c102.4 0 186.181818 83.781818 186.181818 186.181818s-83.781818 186.181818-186.181818 186.181818-186.181818-83.781818-186.181818-186.181818 83.781818-186.181818 186.181818-186.181818z m698.181818 349.090909c0 13.963636-9.309091 23.272727-23.272727 23.272727H372.363636c55.854545-41.890909 93.090909-109.381818 93.090909-186.181818 0-41.890909-11.636364-81.454545-32.581818-116.363637h58.181818c16.290909 0 30.254545-6.981818 41.89091-16.290909l18.618181-18.618182c6.981818-6.981818 16.290909-9.309091 25.6-9.30909H698.181818v69.818181h-128c-6.981818 0-11.636364 4.654545-11.636363 11.636364s4.654545 11.636364 11.636363 11.636364H698.181818c0 30.254545 18.618182 55.854545 46.545455 65.163636l-18.618182 18.618182c-6.981818 6.981818-16.290909 9.309091-25.6 9.309091h-123.345455c-4.654545-13.963636-18.618182-23.272727-32.581818-23.272728-18.618182 0-34.909091 16.290909-34.909091 34.909091s16.290909 34.909091 34.909091 34.909091c16.290909 0 27.927273-9.309091 32.581818-23.272727h123.345455c16.290909 0 30.254545-6.981818 41.890909-16.290909l30.254545-30.254546H930.909091V907.636364z m-372.363636-128c0 6.981818-4.654545 11.636364-11.636364 11.636363s-11.636364-4.654545-11.636364-11.636363 4.654545-11.636364 11.636364-11.636364 11.636364 4.654545 11.636364 11.636364zM977.454545 674.909091c0 13.963636-9.309091 23.272727-23.272727 23.272727h-186.181818c-13.963636 0-23.272727-9.309091-23.272727-23.272727v-93.090909c0-13.963636 9.309091-23.272727 23.272727-23.272727h186.181818c13.963636 0 23.272727 9.309091 23.272727 23.272727v93.090909z" p-id="1687"></path>
</svg>