<svg width="36" height="36" viewBox="0 0 36 36" fill="none" xmlns="http://www.w3.org/2000/svg">
<g clip-path="url(#clip0_1228_1604)">
<path d="M30.5796 5.34766L19.5505 13.2714L21.59 8.5965L30.5796 5.34766Z" fill="#E2761B" stroke="#E2761B" stroke-width="0.84375" stroke-linecap="round" stroke-linejoin="round"/>
<path d="M5.11816 5.34766L16.0585 13.3465L14.1188 8.5965L5.11816 5.34766Z" fill="#E4761B" stroke="#E4761B" stroke-width="0.84375" stroke-linecap="round" stroke-linejoin="round"/>
<path d="M26.6115 23.7148L23.6741 28.0681L29.959 29.7407L31.7657 23.8114L26.6115 23.7148Z" fill="#E4761B" stroke="#E4761B" stroke-width="0.84375" stroke-linecap="round" stroke-linejoin="round"/>
<path d="M3.95435 23.8114L5.75003 29.7407L12.0349 28.0681L9.09755 23.7148L3.95435 23.8114Z" fill="#E4761B" stroke="#E4761B" stroke-width="0.84375" stroke-linecap="round" stroke-linejoin="round"/>
<path d="M11.6801 16.3595L9.92871 18.922L16.1693 19.1901L15.9476 12.7031L11.6801 16.3595Z" fill="#E4761B" stroke="#E4761B" stroke-width="0.84375" stroke-linecap="round" stroke-linejoin="round"/>
<path d="M24.0176 16.3592L19.6946 12.6279L19.5505 19.1899L25.78 18.9219L24.0176 16.3592Z" fill="#E4761B" stroke="#E4761B" stroke-width="0.84375" stroke-linecap="round" stroke-linejoin="round"/>
<path d="M12.0344 28.0683L15.781 26.2992L12.5443 23.8545L12.0344 28.0683Z" fill="#E4761B" stroke="#E4761B" stroke-width="0.84375" stroke-linecap="round" stroke-linejoin="round"/>
<path d="M19.9167 26.2992L23.6744 28.0683L23.1534 23.8545L19.9167 26.2992Z" fill="#E4761B" stroke="#E4761B" stroke-width="0.84375" stroke-linecap="round" stroke-linejoin="round"/>
<path d="M23.6744 28.068L19.9167 26.2988L20.216 28.6685L20.1828 29.6656L23.6744 28.068Z" fill="#D7C1B3" stroke="#D7C1B3" stroke-width="0.84375" stroke-linecap="round" stroke-linejoin="round"/>
<path d="M12.0359 28.068L15.5276 29.6656L15.5054 28.6685L15.7825 26.2988L12.0359 28.068Z" fill="#D7C1B3" stroke="#D7C1B3" stroke-width="0.84375" stroke-linecap="round" stroke-linejoin="round"/>
<path d="M15.5821 22.289L12.4563 21.3991L14.6621 20.4233L15.5821 22.289Z" fill="#233447" stroke="#233447" stroke-width="0.84375" stroke-linecap="round" stroke-linejoin="round"/>
<path d="M20.116 22.289L21.036 20.4233L23.2529 21.3991L20.116 22.289Z" fill="#233447" stroke="#233447" stroke-width="0.84375" stroke-linecap="round" stroke-linejoin="round"/>
<path d="M12.0356 28.0681L12.5676 23.7148L9.09814 23.8114L12.0356 28.0681Z" fill="#CD6116" stroke="#CD6116" stroke-width="0.84375" stroke-linecap="round" stroke-linejoin="round"/>
<path d="M23.1416 23.7148L23.6736 28.0681L26.611 23.8114L23.1416 23.7148Z" fill="#CD6116" stroke="#CD6116" stroke-width="0.84375" stroke-linecap="round" stroke-linejoin="round"/>
<path d="M25.78 18.9219L19.5505 19.1899L20.1269 22.2886L21.0469 20.423L23.2638 21.3987L25.78 18.9219Z" fill="#CD6116" stroke="#CD6116" stroke-width="0.84375" stroke-linecap="round" stroke-linejoin="round"/>
<path d="M12.456 21.3987L14.6729 20.423L15.5818 22.2886L16.1693 19.1899L9.92871 18.9219L12.456 21.3987Z" fill="#CD6116" stroke="#CD6116" stroke-width="0.84375" stroke-linecap="round" stroke-linejoin="round"/>
<path d="M9.93018 18.9219L12.5461 23.8541L12.4574 21.3987L9.93018 18.9219Z" fill="#E4751F" stroke="#E4751F" stroke-width="0.84375" stroke-linecap="round" stroke-linejoin="round"/>
<path d="M23.2642 21.3987L23.1533 23.8541L25.7803 18.9219L23.2642 21.3987Z" fill="#E4751F" stroke="#E4751F" stroke-width="0.84375" stroke-linecap="round" stroke-linejoin="round"/>
<path d="M16.1697 19.1899L15.5823 22.2887L16.3138 25.945L16.4801 21.1307L16.1697 19.1899Z" fill="#E4751F" stroke="#E4751F" stroke-width="0.84375" stroke-linecap="round" stroke-linejoin="round"/>
<path d="M19.5517 19.1899L19.2524 21.1199L19.3854 25.945L20.1281 22.2887L19.5517 19.1899Z" fill="#E4751F" stroke="#E4751F" stroke-width="0.84375" stroke-linecap="round" stroke-linejoin="round"/>
<path d="M20.1269 22.2889L19.3843 25.9452L19.9163 26.299L23.1531 23.8543L23.2638 21.3989L20.1269 22.2889Z" fill="#F6851B" stroke="#F6851B" stroke-width="0.84375" stroke-linecap="round" stroke-linejoin="round"/>
<path d="M12.4563 21.3989L12.545 23.8543L15.7816 26.299L16.3137 25.9452L15.5821 22.2889L12.4563 21.3989Z" fill="#F6851B" stroke="#F6851B" stroke-width="0.84375" stroke-linecap="round" stroke-linejoin="round"/>
<path d="M20.1831 29.666L20.2163 28.6689L19.9392 28.4329H15.7603L15.5054 28.6689L15.5276 29.666L12.0359 28.0684L13.2552 29.0334L15.727 30.6953H19.9725L22.4554 29.0334L23.6747 28.0684L20.1831 29.666Z" fill="#C0AD9E" stroke="#C0AD9E" stroke-width="0.84375" stroke-linecap="round" stroke-linejoin="round"/>
<path d="M19.917 26.2992L19.3849 25.9453H16.3145L15.7825 26.2992L15.5054 28.6688L15.7603 28.4329H19.9391L20.2163 28.6688L19.917 26.2992Z" fill="#161616" stroke="#161616" stroke-width="0.84375" stroke-linecap="round" stroke-linejoin="round"/>
<path d="M31.0456 13.7861L31.9878 9.41139L30.5801 5.34766L19.9167 13.0034L24.018 16.3594L29.8152 17.9999L31.101 16.5525L30.5468 16.1664L31.4335 15.3837L30.7463 14.869L31.6331 14.2149L31.0456 13.7861Z" fill="#763D16" stroke="#763D16" stroke-width="0.84375" stroke-linecap="round" stroke-linejoin="round"/>
<path d="M3.72217 9.41139L4.66436 13.7861L4.06579 14.2149L4.95255 14.869L4.27639 15.3837L5.16316 16.1664L4.60893 16.5525L5.88365 17.9999L11.6808 16.3594L15.7821 13.0034L5.11882 5.34766L3.72217 9.41139Z" fill="#763D16" stroke="#763D16" stroke-width="0.84375" stroke-linecap="round" stroke-linejoin="round"/>
<path d="M29.8151 17.9999L24.0179 16.3594L25.7803 18.9219L23.1533 23.8542L26.6117 23.8113H31.766L29.8151 17.9999Z" fill="#F6851B" stroke="#F6851B" stroke-width="0.84375" stroke-linecap="round" stroke-linejoin="round"/>
<path d="M11.6802 16.3594L5.88305 17.9999L3.95435 23.8113H9.09755L12.5448 23.8542L9.92889 18.9219L11.6802 16.3594Z" fill="#F6851B" stroke="#F6851B" stroke-width="0.84375" stroke-linecap="round" stroke-linejoin="round"/>
<path d="M19.5503 19.1903L19.916 13.0036L21.6009 8.59668H14.1189L15.7816 13.0036L16.1695 19.1903L16.3025 21.1417L16.3137 25.9453H19.3841L19.4062 21.1417L19.5503 19.1903Z" fill="#F6851B" stroke="#F6851B" stroke-width="0.84375" stroke-linecap="round" stroke-linejoin="round"/>
</g>
<defs>
<clipPath id="clip0_1228_1604">
<rect width="30.375" height="27" fill="white" transform="translate(2.8125 4.5)"/>
</clipPath>
</defs>
</svg>
