<svg width="1000" height="1000" viewBox="0 0 1000 1000" fill="none" xmlns="http://www.w3.org/2000/svg">
<rect width="1000" height="1000" fill="white"/>
<path fill-rule="evenodd" clip-rule="evenodd" d="M382.889 190H203.778C196.169 190 190 196.169 190 203.778V382.889C190 390.498 196.169 396.666 203.778 396.666H382.889C390.498 396.666 396.666 390.498 396.666 382.889V203.778C396.666 196.169 390.498 190 382.889 190ZM589.644 396.667H410.533C402.924 396.667 396.755 402.835 396.755 410.444V589.555C396.755 597.165 402.924 603.333 410.533 603.333H589.644C597.253 603.333 603.422 597.165 603.422 589.555V410.444C603.422 402.835 597.253 396.667 589.644 396.667ZM617.112 190H796.222C803.832 190 810 196.169 810 203.778V382.889C810 390.498 803.832 396.666 796.222 396.666H617.112C609.502 396.666 603.334 390.498 603.334 382.889V203.778C603.334 196.169 609.502 190 617.112 190ZM382.889 603.334H203.778C196.169 603.334 190 609.502 190 617.112V796.222C190 803.832 196.169 810 203.778 810H382.889C390.498 810 396.666 803.832 396.666 796.222V617.112C396.666 609.502 390.498 603.334 382.889 603.334ZM617.112 603.334H796.222C803.832 603.334 810 609.502 810 617.112V796.222C810 803.832 803.832 810 796.222 810H617.112C609.502 810 603.334 803.832 603.334 796.222V617.112C603.334 609.502 609.502 603.334 617.112 603.334Z" fill="black"/>
</svg>
