<svg width="30" height="30" viewBox="0 0 30 30" fill="none" xmlns="http://www.w3.org/2000/svg">
<g filter="url(#filter0_b_2565_83192)">
<circle cx="15" cy="15" r="15" fill="black" fill-opacity="0.2"/>
<circle cx="15" cy="15" r="15" fill="white" fill-opacity="0.3"/>
</g>
<path fill-rule="evenodd" clip-rule="evenodd" d="M12.7122 6.45274C12.7122 6.24784 12.8258 6.07603 12.9952 6.02449C13.1017 5.99211 13.1897 5.99187 13.2987 6.02359C13.3628 6.0423 13.4392 6.04124 13.5443 6.02021C13.6562 5.99788 13.7281 5.99769 13.8137 6.01959C13.8995 6.04154 13.9687 6.04127 14.0752 6.01859C14.1914 5.99382 14.2434 5.99531 14.3389 6.02617C14.4418 6.05941 14.4737 6.05938 14.5755 6.02589C14.6695 5.99493 14.7215 5.99325 14.8353 6.01748C14.9403 6.03984 15.0148 6.03984 15.1198 6.01748C15.2335 5.99325 15.2855 5.99493 15.3796 6.02589C15.4813 6.05938 15.5133 6.05941 15.6162 6.02617C15.7113 5.99544 15.7638 5.99384 15.8781 6.01821C15.9842 6.04081 16.0548 6.04078 16.1516 6.01813C16.2494 5.99517 16.3171 5.99544 16.4226 6.01915C16.5261 6.04241 16.5908 6.04295 16.6674 6.02118C16.9733 5.93429 17.2429 6.13645 17.2429 6.45274V6.58682L17.3828 6.60347C17.4597 6.61261 17.5557 6.61927 17.596 6.6183C17.7766 6.61383 18.0091 6.6128 18.0824 6.61611C18.1263 6.61811 18.232 6.61234 18.3172 6.6033C18.6046 6.57277 18.8153 6.74553 18.8153 7.01171C18.8153 7.15954 18.8158 7.16052 18.8965 7.16052C18.9412 7.16052 19.0151 7.18012 19.0607 7.20407C19.1369 7.24408 19.1509 7.24408 19.2335 7.20407C19.5152 7.06764 19.8546 7.2914 19.8546 7.61346V7.75606L19.9413 7.75666C20.1835 7.75831 20.3877 7.9727 20.3877 8.22541V8.35161H20.4823C20.7025 8.35161 20.9207 8.58666 20.9207 8.82398C20.9207 8.90885 20.9286 8.92008 20.9884 8.92008C21.1932 8.92008 21.3896 9.11813 21.4155 9.35069L21.4332 9.50948L21.5623 9.52686C21.79 9.55756 21.9334 9.73046 21.9334 9.97447V10.1112H22.0493C22.3529 10.1112 22.5758 10.5216 22.4289 10.8102C22.397 10.8728 22.3969 10.8939 22.428 10.9509C22.4748 11.0369 22.4753 11.3231 22.4288 11.4084C22.3988 11.4634 22.3989 11.4884 22.4297 11.5632C22.4499 11.6123 22.4664 11.7004 22.4664 11.759C22.4664 11.8479 22.4743 11.8636 22.5139 11.8531C22.5933 11.832 22.7942 11.9379 22.8997 12.0565C22.9943 12.1629 22.9994 12.1781 22.9994 12.3529C22.9994 12.4681 22.9854 12.5566 22.9621 12.589C22.9301 12.6334 22.9301 12.6485 22.9621 12.6949C23.0124 12.7679 23.0124 13.1146 22.9621 13.1845C22.9301 13.229 22.9301 13.2441 22.9621 13.2905C23.0145 13.3665 23.0117 13.6816 22.9579 13.7596C22.9204 13.8141 22.9204 13.8255 22.9579 13.88C22.9853 13.9195 22.9994 14.0008 22.9994 14.1176C22.9994 14.2343 22.9853 14.3156 22.9579 14.3552C22.9204 14.4096 22.9204 14.4211 22.9579 14.4755C23.0119 14.5537 23.0147 14.8711 22.9621 14.9441C22.9301 14.9885 22.9301 15.0037 22.9621 15.05C23.0123 15.1228 23.0123 15.4674 22.9621 15.5402C22.9301 15.5866 22.9301 15.6017 22.9621 15.6462C22.9862 15.6795 22.9994 15.7694 22.9994 15.8985C22.9994 16.0897 22.9954 16.1029 22.9128 16.1817C22.7787 16.3097 22.6754 16.3642 22.5664 16.3643L22.4664 16.3644L22.4655 16.493C22.465 16.5637 22.4484 16.6511 22.4288 16.6871C22.3988 16.7421 22.3989 16.7671 22.4297 16.8419C22.4755 16.9533 22.4752 17.1641 22.429 17.2712C22.3996 17.3396 22.4002 17.3649 22.4331 17.4311C22.4886 17.543 22.4676 17.8295 22.3969 17.9257C22.308 18.0468 22.211 18.1038 22.0708 18.1174L21.9378 18.1304L21.9222 18.2964C21.9032 18.4992 21.9032 18.5449 21.9226 18.7959C21.9456 19.0934 21.8215 19.2579 21.5396 19.3037L21.4333 19.321L21.4155 19.4799C21.3897 19.7124 21.1855 19.9106 20.9718 19.9106C20.9312 19.9106 20.9207 19.93 20.9207 20.0044C20.9207 20.056 20.9003 20.1416 20.8754 20.1947C20.8328 20.2854 20.8328 20.2957 20.8754 20.369C21.0277 20.6309 20.7994 21.0475 20.5036 21.0475H20.3877V21.1924C20.3877 21.4348 20.222 21.6174 19.964 21.6593L19.8546 21.6771V21.8216C19.8546 22.1237 19.489 22.342 19.2198 22.2005C19.1581 22.1681 19.1374 22.168 19.0812 22.1996C19.0449 22.22 18.9702 22.2371 18.9152 22.2377L18.8153 22.2386L18.8148 22.3672C18.8137 22.7039 18.4562 22.941 18.1736 22.7925C18.1022 22.755 18.0885 22.755 18.0358 22.7925C18.0036 22.8154 17.9319 22.8342 17.8765 22.8342C17.7767 22.8342 17.7759 22.8351 17.7759 22.9433C17.7759 23.2587 17.5049 23.4775 17.2095 23.4005C17.0693 23.3639 17.0428 23.3638 16.9097 23.3995C16.8511 23.4152 16.7851 23.4225 16.7631 23.4157C16.731 23.4058 16.7219 23.4365 16.7169 23.572C16.71 23.7587 16.6686 23.8371 16.5236 23.9373C16.4195 24.0092 16.1664 24.0225 16.0827 23.9603C16.0389 23.9278 16.024 23.9278 15.9784 23.9603C15.9082 24.0102 15.6172 24.0104 15.5501 23.9606C15.5068 23.9285 15.4909 23.9288 15.4396 23.963C15.395 23.9927 15.3331 23.9991 15.1985 23.988L15.1947 23.9877C15.0861 23.9787 15.0318 23.9743 14.9775 23.9743C14.9232 23.9743 14.8689 23.9787 14.7603 23.9877L14.7566 23.988C14.622 23.9991 14.5601 23.9927 14.5155 23.963C14.4631 23.9281 14.449 23.928 14.4034 23.9623C14.3647 23.9914 14.3032 23.9979 14.1647 23.9874L14.1588 23.987C14.0435 23.9783 13.9875 23.9741 13.9315 23.9744C13.8785 23.9747 13.8255 23.9791 13.7224 23.9875L13.7165 23.988C13.4169 24.0127 13.2447 23.8547 13.2376 23.5487C13.2349 23.4304 13.2264 23.405 13.1931 23.4153C13.1705 23.4223 13.104 23.4152 13.0454 23.3995C12.9123 23.3638 12.8858 23.3639 12.7455 23.4005C12.4502 23.4775 12.1792 23.2587 12.1792 22.9433C12.1792 22.8351 12.1783 22.8342 12.0785 22.8342C12.0232 22.8342 11.9515 22.8154 11.9193 22.7925C11.8666 22.755 11.8528 22.755 11.7814 22.7925C11.4988 22.941 11.1414 22.7039 11.1402 22.3672L11.1398 22.2386H11.0452C10.8133 22.2386 10.6068 22.0075 10.6068 21.7479C10.6068 21.6837 10.5943 21.6744 10.4858 21.6579C10.2626 21.6239 10.1004 21.4246 10.1004 21.1842V21.0475H9.9925C9.76336 21.0475 9.56742 20.846 9.56742 20.6104V20.4791H9.46476C9.25961 20.4791 9.08598 20.2965 9.06671 20.0606C9.05525 19.9202 9.04997 19.9105 8.98446 19.9095C8.75271 19.9058 8.5548 19.6958 8.5545 19.4532L8.55432 19.3015L8.43583 19.2961C8.1537 19.2832 8.0087 19.1034 8.03247 18.7959C8.05187 18.5449 8.05192 18.4992 8.03287 18.2964L8.01725 18.1304L7.88424 18.1174C7.5858 18.0883 7.40124 17.7408 7.52421 17.4396C7.55342 17.3681 7.55363 17.3379 7.52541 17.2712C7.48026 17.1645 7.47965 16.9532 7.52421 16.844C7.55342 16.7725 7.55363 16.7424 7.52541 16.6757C7.50651 16.631 7.49052 16.5427 7.48986 16.4794L7.48866 16.3644H7.386C7.15768 16.3644 6.99596 16.174 7.0001 15.9101C7.00346 15.7051 7.00472 15.5001 7.00388 15.2951C7.00353 15.2132 7.00324 15.0792 7.00324 14.9973C7.00324 14.9155 7.00353 14.7815 7.00388 14.6996C7.00425 14.6177 7.00449 14.4898 7.00441 14.4153C7.0043 14.2168 7.0043 14.0183 7.00441 13.8198C7.00449 13.7454 7.00425 13.6174 7.00388 13.5356C7.00353 13.4537 7.00324 13.3197 7.00324 13.2378C7.00324 13.1559 7.00353 13.0219 7.00388 12.94C7.00476 12.7425 7.00356 12.5465 7.0001 12.325C6.99599 12.0622 7.1241 11.9054 7.36569 11.8778C7.4885 11.8637 7.48866 11.8636 7.48866 11.7581C7.48866 11.7 7.50465 11.6132 7.52421 11.5653C7.55342 11.4938 7.55363 11.4637 7.52541 11.397C7.3953 11.0895 7.60486 10.7067 7.90332 10.7067H8.01693L8.03271 10.5375C8.05171 10.3334 8.05171 10.2903 8.03273 10.03C8.01075 9.72805 8.13947 9.55805 8.41515 9.52488L8.55469 9.50807V9.3515C8.55469 9.12162 8.75183 8.92008 8.97673 8.92008C9.05178 8.92008 9.05487 8.91491 9.06671 8.77009C9.08598 8.53414 9.25961 8.35161 9.46476 8.35161H9.56742V8.22032C9.56742 7.99271 9.7515 7.78898 9.98088 7.76269L10.1004 7.74902V7.60994C10.1004 7.29053 10.4326 7.07454 10.7298 7.20066C10.8134 7.23615 10.8333 7.23615 10.9008 7.20066C10.9429 7.17857 11.0138 7.16052 11.0585 7.16052C11.138 7.16052 11.1398 7.15754 11.1398 7.02917C11.1398 6.75879 11.3425 6.57894 11.6195 6.60352C11.7148 6.61197 11.8258 6.61835 11.8661 6.61768C11.9764 6.61586 12.276 6.61624 12.3591 6.6183C12.3994 6.61927 12.4954 6.61261 12.5723 6.60347L12.7122 6.58682V6.45274ZM11.2262 13.1292L11.3082 13.0443L11.3901 12.9594L11.4232 13.0206C11.4984 13.1597 11.7456 13.1628 11.8569 13.026L11.9071 12.9643L11.9485 13.0231C12.0453 13.1605 12.312 13.1521 12.3872 13.0093C12.4148 12.9569 12.4189 12.958 12.5026 13.0409L12.5894 13.1267L12.5028 13.212C12.4294 13.2842 12.4162 13.3165 12.4162 13.4238C12.4162 13.6891 12.6939 13.8098 12.8768 13.624C12.9266 13.5734 12.9645 13.5522 12.9708 13.5713C13.021 13.7243 13.2814 13.7609 13.3982 13.6314L13.468 13.5541L13.5438 13.6365C13.6182 13.7174 13.6186 13.7196 13.5674 13.7612C13.4952 13.8196 13.4556 13.9063 13.4556 14.006C13.4556 14.2673 13.7362 14.4024 13.9107 14.2251L13.9886 14.146L14.0684 14.227L14.1482 14.308L14.0684 14.3762C13.9529 14.4749 13.9508 14.7069 14.0645 14.8147L14.1403 14.8867L14.0645 14.9626C13.954 15.0732 13.9542 15.2893 14.065 15.3971L14.1413 15.4714L14.065 15.549C13.9531 15.6626 13.953 15.8932 14.0648 15.9888L14.141 16.0539L14.0648 16.1405C13.9551 16.2652 13.9549 16.4703 14.0645 16.5743L14.1403 16.6462L14.0645 16.7222C13.9532 16.8336 13.9533 17.0659 14.0647 17.1696L14.1409 17.2404L14.0647 17.3127C13.9508 17.4207 13.9528 17.6526 14.0684 17.7514L14.1482 17.8196L14.0684 17.9006L13.9886 17.9816L13.9107 17.9025C13.653 17.6408 13.2944 18.0411 13.536 18.3206L13.6165 18.4137L13.5401 18.4913L13.4637 18.5689L13.3961 18.4939C13.2986 18.3858 13.117 18.3867 13.0157 18.4956L12.9445 18.5723L12.8689 18.4956C12.7638 18.3888 12.6024 18.3878 12.4992 18.4934L12.4263 18.5678L12.3448 18.4841C12.2672 18.4045 12.2657 18.3989 12.3138 18.3684C12.3417 18.3507 12.3837 18.2953 12.4072 18.2453C12.553 17.9347 12.1342 17.6602 11.9397 17.9388C11.9039 17.99 11.9013 17.9894 11.8455 17.9183C11.7542 17.8019 11.5646 17.7909 11.4613 17.8959L11.3832 17.9751L11.2943 17.8944C11.2381 17.8434 11.2179 17.8095 11.2393 17.8023C11.3871 17.7522 11.4315 17.4579 11.3125 17.3173C11.2163 17.2037 11.0233 17.2071 10.9305 17.3242L10.8649 17.407L10.7811 17.3242L10.6972 17.2414L10.7838 17.1561C10.9057 17.0361 10.9083 16.8561 10.79 16.7359L10.7095 16.6542L10.793 16.5576C10.9022 16.4312 10.8957 16.2282 10.7791 16.1263L10.7076 16.0638L10.7791 16.0013C10.902 15.8939 10.9039 15.6863 10.7832 15.5637C10.6564 15.4349 10.4485 15.4494 10.3697 15.5924C10.3495 15.6292 10.3346 15.6237 10.2661 15.554L10.186 15.4727L10.2618 15.4053C10.374 15.3052 10.3729 15.0737 10.2596 14.9651L10.1817 14.8905L10.2596 14.8166C10.3728 14.7092 10.3728 14.4984 10.2595 14.3834L10.1816 14.3042L10.2595 14.2251L10.3374 14.146L10.4153 14.2251C10.5396 14.3514 10.7516 14.3238 10.8292 14.1714C10.9036 14.0252 10.8741 13.8546 10.7582 13.7608C10.7063 13.7187 10.7067 13.7168 10.7839 13.6384L10.8623 13.5587L10.9299 13.6337C11.0247 13.7387 11.205 13.7405 11.3066 13.6373C11.4115 13.5307 11.4089 13.2992 11.3015 13.1993L11.2262 13.1292ZM18.6396 13.0262L18.7215 13.1111L18.6462 13.1811C18.5389 13.281 18.5362 13.5126 18.6412 13.6192C18.7427 13.7223 18.9231 13.7206 19.0178 13.6156L19.0855 13.5406L19.1639 13.6203C19.2411 13.6987 19.2415 13.7006 19.1896 13.7426C19.0736 13.8365 19.0441 14.0071 19.1186 14.1533C19.1962 14.3057 19.4081 14.3332 19.5324 14.207L19.6103 14.1279L19.6882 14.207L19.7661 14.2861L19.6882 14.3652C19.575 14.4802 19.575 14.6911 19.6882 14.7985L19.766 14.8723L19.6882 14.947C19.5749 15.0556 19.5738 15.2871 19.686 15.3871L19.7617 15.4546L19.6817 15.5359C19.6131 15.6056 19.5983 15.611 19.578 15.5743C19.4992 15.4312 19.2913 15.4168 19.1646 15.5456C19.0438 15.6682 19.0457 15.8758 19.1686 15.9832L19.2402 16.0457L19.1686 16.1082C19.052 16.2101 19.0455 16.4131 19.1548 16.5395L19.2382 16.636L19.1578 16.7178C19.0394 16.838 19.0421 17.018 19.1639 17.138L19.2505 17.2232L19.1667 17.306L19.0829 17.3888L19.0172 17.306C18.9245 17.189 18.7315 17.1855 18.6352 17.2992C18.5162 17.4398 18.5606 17.7341 18.7084 17.7841C18.7298 17.7914 18.7096 17.8253 18.6534 17.8763L18.5645 17.957L18.4865 17.8777C18.3831 17.7727 18.1936 17.7838 18.1023 17.9001C18.0464 17.9713 18.0438 17.9718 18.0081 17.9207C17.8136 17.6421 17.3948 17.9166 17.5406 18.2271C17.5641 18.2772 17.6061 18.3326 17.6339 18.3503C17.6821 18.3808 17.6806 18.3864 17.603 18.466L17.5214 18.5497L17.4486 18.4752C17.3453 18.3697 17.184 18.3707 17.0788 18.4775L17.0033 18.5542L16.932 18.4775C16.8308 18.3685 16.6491 18.3677 16.5517 18.4758L16.484 18.5508L16.4076 18.4732L16.3312 18.3956L16.4117 18.3025C16.6534 18.023 16.2947 17.6227 16.0371 17.8844L15.9592 17.9635L15.8794 17.8825L15.7996 17.8015L15.8794 17.7333C15.995 17.6344 15.9969 17.4026 15.883 17.2945L15.8069 17.2223L15.883 17.1515C15.9944 17.0478 15.9946 16.8154 15.8833 16.7041L15.8074 16.6281L15.8833 16.5561C15.9928 16.4522 15.9927 16.2471 15.883 16.1223L15.8068 16.0358L15.883 15.9706C15.9948 15.8751 15.9947 15.6445 15.8828 15.5308L15.8064 15.4533L15.8828 15.379C15.9936 15.2712 15.9938 15.0551 15.8833 14.9445L15.8074 14.8685L15.8833 14.7966C15.9969 14.6888 15.9949 14.4568 15.8794 14.3581L15.7996 14.2899L15.8794 14.2089L15.9592 14.1279L16.0371 14.207C16.2116 14.3843 16.4922 14.2492 16.4922 13.9879C16.4922 13.8882 16.4526 13.8015 16.3804 13.743C16.3291 13.7015 16.3296 13.6992 16.404 13.6183L16.4798 13.5359L16.5495 13.6132C16.6663 13.7427 16.9268 13.7062 16.977 13.5532C16.9833 13.5341 17.0212 13.5553 17.0709 13.6058C17.2538 13.7916 17.5315 13.6709 17.5315 13.4057C17.5315 13.2984 17.5183 13.2661 17.4449 13.1938L17.3583 13.1086L17.4451 13.0227C17.5289 12.9399 17.5329 12.9388 17.5605 12.9912C17.6358 13.134 17.9024 13.1424 17.9992 13.005L18.0407 12.9461L18.0908 13.0078C18.2021 13.1447 18.4494 13.1416 18.5246 13.0024L18.5576 12.9413L18.6396 13.0262Z" fill="white"/>
<defs>
<filter id="filter0_b_2565_83192" x="-10" y="-10" width="50" height="50" filterUnits="userSpaceOnUse" color-interpolation-filters="sRGB">
<feFlood flood-opacity="0" result="BackgroundImageFix"/>
<feGaussianBlur in="BackgroundImageFix" stdDeviation="5"/>
<feComposite in2="SourceAlpha" operator="in" result="effect1_backgroundBlur_2565_83192"/>
<feBlend mode="normal" in="SourceGraphic" in2="effect1_backgroundBlur_2565_83192" result="shape"/>
</filter>
</defs>
</svg>
