<svg width="512" height="512" viewBox="0 0 512 512" fill="none" xmlns="http://www.w3.org/2000/svg">
  <g opacity="0.4">
  <path d="M48.3205 374C38.7547 368.477 38.7547 359.523 48.3205 354L273.487 224C283.053 218.477 298.562 218.477 308.128 224L464.013 314C473.579 319.523 473.579 328.477 464.013 334L238.846 464C229.28 469.523 213.771 469.523 204.205 464L48.3205 374Z" fill="#636266" fill-opacity="0.3"/>
  <path fill-rule="evenodd" clip-rule="evenodd" d="M48.176 296.986C43.6197 294.355 41.2336 290.946 41.0177 287.5L41 287.503V274.503H52.4773L273.343 146.986C282.908 141.463 298.418 141.463 307.984 146.986L461.295 235.5H471.18V247.5L471.027 247.488C470.816 250.938 468.43 254.352 463.868 256.986L238.702 386.986C229.136 392.509 213.626 392.509 204.061 386.986L48.176 296.986Z" fill="url(#paint0_linear_2502_7717)"/>
  <g filter="url(#filter0_i_2502_7717)">
  <path d="M48.3205 285C38.7547 279.477 38.7547 270.523 48.3205 265L273.487 135C283.053 129.477 298.562 129.477 308.128 135L464.013 225C473.579 230.523 473.579 239.477 464.013 245L238.846 375C229.28 380.523 213.771 380.523 204.205 375L48.3205 285Z" fill="url(#paint1_linear_2502_7717)"/>
  </g>
  <path opacity="0.5" d="M197.082 254.66C197.112 252.451 200.238 250.646 204.064 250.628L334.318 250.033C338.144 250.015 341.221 251.792 341.19 254.001C341.16 256.21 338.034 258.015 334.208 258.032L203.955 258.628C200.129 258.645 197.052 256.869 197.082 254.66Z" fill="#000000"/>
  <path fill-rule="evenodd" clip-rule="evenodd" d="M219.165 117.266L316.974 60.7954C327.781 54.5563 345.301 54.5563 356.108 60.7954L399.326 85.7471C410.132 91.9863 410.132 102.102 399.326 108.341L301.516 164.811C290.71 171.05 273.189 171.05 262.383 164.811L219.165 139.859C208.358 133.62 208.358 123.505 219.165 117.266ZM217.866 140.609C206.342 133.956 206.342 123.169 217.866 116.516L315.675 60.0454C327.199 53.3921 345.883 53.3921 357.407 60.0454L400.625 84.9971C412.149 91.6505 412.148 102.438 400.625 109.091L302.815 165.561C291.292 172.214 272.607 172.215 261.084 165.561L217.866 140.609ZM310.423 95.3498L310.181 112.988L340.734 112.849L340.714 114.348L310.161 114.488L309.931 131.211L308.431 131.218L308.661 114.495L278.6 114.632L278.62 113.133L308.681 112.995L308.923 95.3567L310.423 95.3498Z" fill="#000000"/>
  <path opacity="0.5" fill-rule="evenodd" clip-rule="evenodd" d="M80.5885 273C83.4582 274.657 83.4582 277.343 80.5885 279C77.7187 280.657 73.0659 280.657 70.1962 279C67.3264 277.343 67.3264 274.657 70.1962 273C73.0659 271.343 77.7187 271.343 80.5885 273ZM96.1769 264C99.0467 265.657 99.0467 268.343 96.1769 270C93.3072 271.657 88.6544 271.657 85.7846 270C82.9149 268.343 82.9149 265.657 85.7846 264C88.6544 262.343 93.3072 262.343 96.1769 264ZM111.765 261C114.635 259.343 114.635 256.657 111.765 255C108.896 253.343 104.243 253.343 101.373 255C98.5033 256.657 98.5033 259.343 101.373 261C104.243 262.657 108.896 262.657 111.765 261Z" fill="#000000"/>
  <path fill-rule="evenodd" clip-rule="evenodd" d="M150.242 332.752L99.2292 362.204C96.1203 363.999 96.1203 366.909 99.2292 368.704L152.165 399.267C155.273 401.062 160.314 401.062 163.423 399.267L214.436 369.814C217.545 368.019 217.545 365.109 214.436 363.314L161.501 332.752C158.392 330.957 153.351 330.957 150.242 332.752ZM97.9302 361.454C94.1038 363.664 94.1038 367.245 97.9302 369.454L150.866 400.017C154.692 402.226 160.896 402.226 164.722 400.017L215.735 370.564C219.561 368.355 219.561 364.773 215.735 362.564L162.8 332.002C158.973 329.793 152.77 329.793 148.943 332.002L97.9302 361.454Z" fill="#000000"/>
  </g>
  <defs>
  <filter id="filter0_i_2502_7717" x="41.1461" y="130.858" width="430.041" height="248.284" filterUnits="userSpaceOnUse" color-interpolation-filters="sRGB">
  <feFlood flood-opacity="0" result="BackgroundImageFix"/>
  <feBlend mode="normal" in="SourceGraphic" in2="BackgroundImageFix" result="shape"/>
  <feColorMatrix in="SourceAlpha" type="matrix" values="0 0 0 0 0 0 0 0 0 0 0 0 0 0 0 0 0 0 127 0" result="hardAlpha"/>
  <feOffset dy="-0.5"/>
  <feComposite in2="hardAlpha" operator="arithmetic" k2="-1" k3="1"/>
  <feColorMatrix type="matrix" values="0 0 0 0 1 0 0 0 0 1 0 0 0 0 1 0 0 0 0.1 0"/>
  <feBlend mode="normal" in2="shape" result="effect1_innerShadow_2502_7717"/>
  </filter>
  <linearGradient id="paint0_linear_2502_7717" x1="60.8984" y1="310.292" x2="427.059" y2="280.224" gradientUnits="userSpaceOnUse">
  <stop stop-color="#636363"/>
  <stop offset="1" stop-color="#2F2F32"/>
  </linearGradient>
  <linearGradient id="paint1_linear_2502_7717" x1="51" y1="264.5" x2="399.508" y2="393.943" gradientUnits="userSpaceOnUse">
  <stop stop-color="#707070"/>
  <stop offset="1" stop-color="#3A3A3A"/>
  </linearGradient>
  </defs>
  </svg>
  