<svg width="18" height="18" viewBox="0 0 18 18" fill="none" xmlns="http://www.w3.org/2000/svg">
<g clip-path="url(#clip0_8960_42924)">
<path d="M16.5 10.125V15.75C16.5 16.1642 16.1642 16.5 15.75 16.5H15C14.5858 16.5 14.25 16.1642 14.25 15.75V15H3.75V15.75C3.75 16.1642 3.41421 16.5 3 16.5H2.25C1.83579 16.5 1.5 16.1642 1.5 15.75V10.125L0.568098 9.89205C0.234223 9.80857 0 9.50857 0 9.1644V8.625C0 8.41792 0.167893 8.25 0.375 8.25H1.78125L3.385 3.97331C3.60455 3.38786 4.16423 3 4.7895 3H13.2105C13.8358 3 14.3954 3.38786 14.615 3.97331L16.2188 8.25H17.625C17.8321 8.25 18 8.41792 18 8.625V9.1644C18 9.50857 17.7658 9.80857 17.4319 9.89205L16.5 10.125ZM3 11.25V12.75C3 13.1642 3.33579 13.5 3.75 13.5H6.18372C6.2454 13.5 6.30613 13.4848 6.36052 13.4557C6.54313 13.358 6.61201 13.1308 6.51436 12.9482C5.90896 11.8161 4.73754 11.25 3 11.25ZM15 11.25C13.2625 11.25 12.091 11.8161 11.4856 12.9482C11.3879 13.1308 11.4569 13.358 11.6395 13.4557C11.6939 13.4848 11.7546 13.5 11.8162 13.5H14.25C14.6642 13.5 15 13.1642 15 12.75V11.25ZM4.5 4.5L3.32905 8.01285C3.30356 8.08927 3.29057 8.16937 3.29057 8.25C3.29057 8.66423 3.62636 9 4.04057 9H13.9594C14.0401 9 14.1201 8.98702 14.1966 8.96152C14.5895 8.8305 14.8019 8.40577 14.671 8.01285L13.5 4.5H4.5Z" fill="#000"/>
</g>
<defs>
<clipPath id="clip0_8960_42924">
<rect width="18" height="18" fill="#000"/>
</clipPath>
</defs>
</svg>
