<svg width="16" height="16" viewBox="0 0 16 16" fill="none" xmlns="http://www.w3.org/2000/svg">
  <path d="M13.389 6.99987L14.1904 7.48074C14.3482 7.57547 14.3994 7.7802 14.3048 7.93807C14.2766 7.98494 14.2373 8.0242 14.1904 8.0524L8.0001 11.7665L1.80984 8.0524C1.65198 7.95767 1.60078 7.75294 1.6955 7.59507C1.72365 7.54814 1.76292 7.50887 1.80984 7.48074L2.61123 6.99987L8.0001 10.2332L13.389 6.99987ZM13.389 10.1332L14.1904 10.6141C14.3482 10.7088 14.3994 10.9135 14.3048 11.0714C14.2766 11.1183 14.2373 11.1575 14.1904 11.1857L8.3431 14.6941C8.13196 14.8207 7.86823 14.8207 7.6571 14.6941L1.80984 11.1857C1.65198 11.091 1.60078 10.8863 1.6955 10.7284C1.72365 10.6815 1.76292 10.6422 1.80984 10.6141L2.61123 10.1332L8.0001 13.3665L13.389 10.1332ZM8.3431 0.872349L14.1904 4.38072C14.3482 4.47544 14.3994 4.68019 14.3048 4.83805C14.2766 4.88497 14.2373 4.92424 14.1904 4.95238L8.0001 8.66654L1.80984 4.95238C1.65198 4.85767 1.60078 4.65292 1.6955 4.49506C1.72365 4.44814 1.76292 4.40887 1.80984 4.38072L7.6571 0.872349C7.86823 0.745675 8.13196 0.745675 8.3431 0.872349Z" fill="url(#paint0_linear_908_22098)"/>
  <defs>
    <linearGradient id="paint0_linear_908_22098" x1="1.64795" y1="7.78321" x2="14.3523" y2="7.78321" gradientUnits="userSpaceOnUse">
      <stop stop-color="#19CC4B"/>
      <stop offset="1" stop-color="#2CC0FF"/>
    </linearGradient>
  </defs>
</svg>
