<svg width="24" height="24" viewBox="0 0 24 24" fill="none" xmlns="http://www.w3.org/2000/svg">
<path d="M13.3333 8.6665H8C6.89543 8.6665 6 9.56193 6 10.6665V15.9998C6 17.1044 6.89543 17.9998 8 17.9998H13.3333C14.4379 17.9998 15.3333 17.1044 15.3333 15.9998V10.6665C15.3333 9.56193 14.4379 8.6665 13.3333 8.6665Z" stroke="#000" stroke-width="1.2" stroke-linecap="round" stroke-linejoin="round"/>
<path d="M8.66699 6.66667C8.87812 6.45499 9.129 6.28712 9.40522 6.17271C9.68143 6.0583 9.97753 5.99961 10.2765 6H16.0003C16.5308 6 17.0395 6.21072 17.4145 6.58579C17.7896 6.96086 18.0003 7.46957 18.0003 8V13.7238C18.0007 14.0228 17.942 14.3189 17.8276 14.5951C17.7132 14.8713 17.5453 15.1222 17.3337 15.3333" stroke="#000" stroke-width="1.2" stroke-linecap="round" stroke-linejoin="round"/>
</svg>
