<svg width="25" height="24" viewBox="0 0 25 24" fill="none" xmlns="http://www.w3.org/2000/svg">
  <path d="M19.8034 5.33716C18.4344 4.71103 16.9805 4.2547 15.4629 4C15.2719 4.32899 15.0596 4.77471 14.911 5.12492C13.2969 4.89144 11.6944 4.89144 10.1025 5.12492C9.95397 4.77471 9.7311 4.32899 9.55068 4C8.02251 4.2547 6.56861 4.71103 5.20915 5.33716C2.46053 9.39111 1.71766 13.3495 2.0891 17.2549C3.91443 18.5815 5.67612 19.388 7.40701 19.9187C7.83151 19.3456 8.21356 18.73 8.54255 18.0827C7.91641 17.8492 7.32211 17.5627 6.74904 17.2231C6.89762 17.117 7.0462 17.0003 7.18416 16.8835C10.6438 18.4648 14.3911 18.4648 17.8082 16.8835C17.9568 17.0003 18.0948 17.117 18.2434 17.2231C17.6703 17.5627 17.076 17.8492 16.4499 18.0827C16.7789 18.73 17.1609 19.3456 17.5854 19.9187C19.3152 19.388 21.0875 18.5815 22.9033 17.2549C23.3596 12.7341 22.1806 8.80747 19.8034 5.33716ZM9.0201 14.8459C7.98007 14.8459 7.13107 13.9014 7.13107 12.7447C7.13107 11.5879 7.95884 10.6434 9.0201 10.6434C10.0707 10.6434 10.9303 11.5879 10.9091 12.7447C10.9091 13.9014 10.0707 14.8459 9.0201 14.8459ZM15.9936 14.8459C14.9535 14.8459 14.1034 13.9014 14.1034 12.7447C14.1034 11.5879 14.9323 10.6434 15.9936 10.6434C17.0442 10.6434 17.9038 11.5879 17.8825 12.7447C17.8825 13.9014 17.0548 14.8459 15.9936 14.8459Z" fill="#808080"/>
</svg>
