<svg width="20" height="20" viewBox="0 0 20 20" fill="none" xmlns="http://www.w3.org/2000/svg">
<path d="M16.0862 4.44828C14.9453 3.92651 13.7337 3.54623 12.4691 3.33398C12.3099 3.60814 12.133 3.97958 12.0092 4.27142C10.6641 4.07685 9.32867 4.07685 8.00212 4.27142C7.87831 3.97958 7.69258 3.60814 7.54223 3.33398C6.26876 3.54623 5.05717 3.92651 3.92429 4.44828C1.63377 7.82658 1.01472 11.1252 1.32425 14.3797C2.84536 15.4852 4.31343 16.1573 5.75584 16.5996C6.10959 16.122 6.42797 15.609 6.70212 15.0696C6.18034 14.875 5.68509 14.6362 5.20753 14.3532C5.33135 14.2648 5.45517 14.1676 5.57013 14.0702C8.45317 15.388 11.5759 15.388 14.4235 14.0702C14.5473 14.1676 14.6623 14.2648 14.7862 14.3532C14.3086 14.6362 13.8133 14.875 13.2916 15.0696C13.5657 15.609 13.8841 16.122 14.2378 16.5996C15.6793 16.1573 17.1562 15.4852 18.6694 14.3797C19.0497 10.6124 18.0672 7.34021 16.0862 4.44828ZM7.10008 12.3722C6.23339 12.3722 5.52589 11.5852 5.52589 10.6212C5.52589 9.65724 6.2157 8.87015 7.10008 8.87015C7.97559 8.87015 8.69192 9.65724 8.67425 10.6212C8.67425 11.5852 7.97559 12.3722 7.10008 12.3722ZM12.9113 12.3722C12.0446 12.3722 11.3362 11.5852 11.3362 10.6212C11.3362 9.65724 12.0269 8.87015 12.9113 8.87015C13.7868 8.87015 14.5032 9.65724 14.4854 10.6212C14.4854 11.5852 13.7957 12.3722 12.9113 12.3722Z" fill="#000000"/>
</svg>
