<svg width="20" height="20" viewBox="0 0 20 20" fill="none" xmlns="http://www.w3.org/2000/svg">
<path d="M10.0003 1.66602C14.6027 1.66602 18.3337 5.39697 18.3337 9.99935C18.3337 14.6017 14.6027 18.3327 10.0003 18.3327C5.39795 18.3327 1.66699 14.6017 1.66699 9.99935C1.66699 5.39697 5.39795 1.66602 10.0003 1.66602ZM13.3372 10.7308C13.0494 10.2938 12.8417 9.97818 12.0522 10.1033C10.5601 10.3402 10.3947 10.6013 10.3234 11.0306L10.3033 11.1613L10.2831 11.2991C10.2017 11.8683 10.2047 12.0837 10.4661 12.3583C11.5204 13.4645 12.152 14.2618 12.3433 14.7282C12.4367 14.9563 12.6769 15.6453 12.5117 16.3266C13.5313 15.9215 14.43 15.277 15.1381 14.4626C15.2299 14.1511 15.2962 13.7632 15.2962 13.2925V13.2053C15.2962 12.4366 15.2962 12.086 14.7529 11.7755C14.5237 11.6453 14.3526 11.5668 14.2155 11.5047C13.9095 11.3655 13.7069 11.2741 13.4335 10.8743C13.4009 10.8267 13.3691 10.7792 13.3372 10.7308ZM10.0003 3.19379C8.06915 3.19379 6.32584 3.99817 5.08716 5.29015C5.23462 5.39257 5.36313 5.53646 5.4514 5.73481C5.6214 6.11626 5.6214 6.50868 5.6214 6.85571C5.62106 7.12952 5.62067 7.38868 5.70859 7.57687C5.82902 7.8338 6.34732 7.94291 6.80489 8.03881C6.96837 8.07324 7.13695 8.10837 7.2903 8.15081C7.71203 8.26796 8.03827 8.64643 8.29981 8.95035C8.40832 9.07693 8.56857 9.26293 8.64891 9.3091C8.69082 9.27901 8.82532 9.13335 8.89191 8.89393C8.94257 8.7116 8.92816 8.5491 8.85357 8.46126C8.38766 7.91139 8.41299 6.85202 8.55699 6.46181C8.78382 5.84607 9.49241 5.8915 10.0103 5.92516C10.2035 5.93759 10.3858 5.94954 10.5217 5.93248C11.0405 5.8674 11.2 5.07883 11.3128 4.92435C11.5562 4.59086 12.3009 4.0886 12.7635 3.77813C11.9191 3.40253 10.9841 3.19379 10.0003 3.19379Z" fill="#000000"/>
</svg>
