<svg width="20" height="20" viewBox="0 0 20 20" fill="none" xmlns="http://www.w3.org/2000/svg">
<path d="M4.99511 9.36444C4.99513 9.27141 5.01352 9.17931 5.04923 9.09341C5.08493 9.00752 5.13725 8.92953 5.20319 8.86391C5.26914 8.79829 5.34737 8.74634 5.43344 8.71104C5.51951 8.67575 5.6117 8.6578 5.70473 8.65824L6.88127 8.66208C7.06884 8.66208 7.24874 8.7366 7.38138 8.86924C7.51403 9.00187 7.58856 9.18178 7.58856 9.36937V13.818C7.721 13.7787 7.89111 13.7368 8.07725 13.693C8.20655 13.6626 8.32177 13.5894 8.40426 13.4853C8.48672 13.3812 8.53159 13.2523 8.53157 13.1195V7.60114C8.53157 7.41354 8.60607 7.23362 8.73871 7.10096C8.87135 6.96829 9.05125 6.89375 9.23886 6.89371H10.4177C10.6053 6.89375 10.7852 6.96829 10.9178 7.10096C11.0505 7.23362 11.125 7.41354 11.125 7.60114V12.7227C11.125 12.7227 11.4202 12.6033 11.7077 12.4819C11.8145 12.4368 11.9056 12.3611 11.9697 12.2645C12.0338 12.1679 12.068 12.0545 12.0682 11.9386V5.83291C12.0682 5.64535 12.1427 5.46546 12.2753 5.33283C12.4079 5.20019 12.5877 5.12567 12.7753 5.12562H13.9542C14.1418 5.12562 14.3217 5.20013 14.4543 5.33278C14.5869 5.46542 14.6615 5.64533 14.6615 5.83291V10.8608C15.6835 10.1201 16.7192 9.22925 17.5412 8.15804C17.6605 8.00256 17.7394 7.81997 17.7709 7.62659C17.8024 7.43321 17.7855 7.23502 17.7218 7.04972C17.3413 5.95506 16.7366 4.95187 15.9462 4.10435C15.1558 3.25685 14.1971 2.58367 13.1316 2.12791C12.0661 1.67216 10.9172 1.44386 9.75838 1.45762C8.59957 1.47138 7.4564 1.7269 6.40202 2.20784C5.34763 2.68877 4.40526 3.38452 3.63519 4.25056C2.86513 5.1166 2.28434 6.13387 1.93 7.23726C1.57566 8.34065 1.45556 9.50585 1.57739 10.6583C1.69922 11.8108 2.0603 12.9251 2.63752 13.93C2.73807 14.1034 2.886 14.2445 3.06394 14.3366C3.24187 14.4288 3.44241 14.4683 3.64203 14.4505C3.86501 14.4309 4.14264 14.4031 4.47272 14.3644C4.61642 14.3481 4.74908 14.2794 4.84544 14.1716C4.9418 14.0638 4.99513 13.9243 4.99525 13.7797L4.99511 9.36444Z" fill="#000"/>
<path d="M4.96875 16.5008C6.21134 17.4048 7.67982 17.9474 9.21169 18.0686C10.7436 18.1897 12.2791 17.8848 13.6484 17.1874C15.0177 16.49 16.1673 15.4274 16.9702 14.1171C17.773 12.8069 18.1977 11.3001 18.1973 9.76341C18.1973 9.57166 18.1884 9.38196 18.1756 9.19336C15.1324 13.7321 9.51341 15.854 4.96901 16.5001" fill="#878787"/>
</svg>
