<svg width="22" height="22" viewBox="0 0 22 22" fill="none" xmlns="http://www.w3.org/2000/svg">
<path d="M17.8507 6.40183L17.8598 6.39302L14.9538 3.58159C14.6896 3.32601 14.2523 3.32601 13.9881 3.58159C13.7239 3.83718 13.7239 4.26021 13.9881 4.5158L15.4275 5.90829C14.471 6.26082 13.8241 7.20384 13.9881 8.29668C14.1339 9.26614 14.9902 10.0505 15.9923 10.1563C16.4205 10.2003 16.794 10.1298 17.1493 9.98001V16.3344C17.1493 16.8191 16.7393 17.2157 16.2383 17.2157C15.7372 17.2157 15.3273 16.8191 15.3273 16.3344V12.3684C15.3273 11.3989 14.5074 10.6058 13.5053 10.6058H12.5943V4.43648C12.5943 3.46702 11.7744 2.67383 10.7723 2.67383H5.30636C4.30427 2.67383 3.48438 3.46702 3.48438 4.43648V17.6563C3.48438 18.1411 3.89432 18.5377 4.39537 18.5377H11.6833C12.1844 18.5377 12.5943 18.1411 12.5943 17.6563V11.9277H13.9608V16.211C13.9608 17.3655 14.8171 18.4143 16.0014 18.5289C17.3679 18.6611 18.5158 17.6299 18.5158 16.3344V7.96178C18.5158 7.35366 18.2607 6.79843 17.8507 6.40183ZM10.7723 8.8431H5.30636V5.3178C5.30636 4.83307 5.71631 4.43648 6.21735 4.43648H9.86133C10.3624 4.43648 10.7723 4.83307 10.7723 5.3178V8.8431ZM16.2383 8.8431C15.7372 8.8431 15.3273 8.4465 15.3273 7.96178C15.3273 7.47705 15.7372 7.08045 16.2383 7.08045C16.7393 7.08045 17.1493 7.47705 17.1493 7.96178C17.1493 8.4465 16.7393 8.8431 16.2383 8.8431Z" fill="#000"/>
</svg>
