<svg width="20" height="20" viewBox="0 0 20 20" fill="none" xmlns="http://www.w3.org/2000/svg">
<path d="M13.7503 2.5C16.2817 2.5 18.3337 4.58333 18.3337 7.5C18.3337 13.3333 12.0837 16.6667 10.0003 17.9167C7.91699 16.6667 1.66699 13.3333 1.66699 7.5C1.66699 4.58333 3.75033 2.5 6.25032 2.5C7.8003 2.5 9.16699 3.33333 10.0003 4.16667C10.8337 3.33333 12.2003 2.5 13.7503 2.5ZM10.7786 15.5032C11.5132 15.0404 12.1753 14.5796 12.7961 14.0857C15.2784 12.1108 16.667 9.95292 16.667 7.5C16.667 5.53397 15.3862 4.16667 13.7503 4.16667C12.8537 4.16667 11.8831 4.64092 11.1788 5.34517L10.0003 6.52369L8.82182 5.34517C8.11756 4.64092 7.14691 4.16667 6.25032 4.16667C4.63287 4.16667 3.33366 5.54708 3.33366 7.5C3.33366 9.95292 4.72222 12.1108 7.20461 14.0857C7.82532 14.5796 8.48741 15.0404 9.22207 15.5032C9.47082 15.6599 9.71791 15.8107 10.0003 15.9793C10.2827 15.8107 10.5298 15.6599 10.7786 15.5032Z" fill="#000"/>
</svg>
