<svg width="18" height="18" viewBox="0 0 18 18" fill="none" xmlns="http://www.w3.org/2000/svg">
<path d="M15.1767 8.14594C14.8027 7.26477 14.2677 6.4842 13.587 5.82828L13.0289 5.29112C12.9464 5.21469 12.8161 5.24889 12.7797 5.35753L12.5303 6.10795C12.375 6.5787 12.0893 7.05956 11.6847 7.53235C11.6643 7.55568 11.6362 7.57003 11.6061 7.57253C11.5911 7.57397 11.5759 7.57202 11.5617 7.56682C11.5475 7.56162 11.5345 7.55329 11.5236 7.54238C11.4968 7.51831 11.4833 7.48205 11.4853 7.44581C11.5561 6.23467 11.211 4.86863 10.4555 3.38192C9.83029 2.14661 8.96166 1.18293 7.87626 0.510999L7.08431 0.0220929C6.98074 -0.0422613 6.84845 0.0422367 6.85415 0.168958L6.89639 1.1346C6.92513 1.79454 6.85228 2.37797 6.67972 2.86286C6.46876 3.45628 6.16575 4.00758 5.77839 4.50249C5.50611 4.84858 5.20124 5.16037 4.86752 5.42993C4.06023 6.07976 3.39487 6.92673 2.9442 7.87431C2.4897 8.832 2.25 9.90435 2.25 10.9787C2.25 11.9283 2.42836 12.8477 2.78118 13.7148C3.12247 14.5497 3.60957 15.3022 4.22896 15.9459C4.85029 16.5897 5.57129 17.0967 6.37475 17.4488C7.20706 17.8149 8.08919 18 9.00006 18C9.91093 18 10.7929 17.8149 11.6253 17.4508C12.4287 17.0987 13.1517 16.5938 13.7711 15.948C14.3923 15.3041 14.8794 14.5518 15.2188 13.7167C15.5717 12.8497 15.75 11.9302 15.75 10.9807C15.75 9.99885 15.5582 9.04529 15.1767 8.14594Z" fill="url(#paint0_linear_5614_61040)"/>
<defs>
<linearGradient id="paint0_linear_5614_61040" x1="9" y1="0" x2="14.283" y2="17.5049" gradientUnits="userSpaceOnUse">
<stop stop-color="#FFCD82"/>
<stop offset="1" stop-color="#EC3F19"/>
</linearGradient>
</defs>
</svg>
