<svg width="20" height="20" viewBox="0 0 20 20" fill="none" xmlns="http://www.w3.org/2000/svg">
<path d="M0.265811 7.71941L0.250981 7.78356C-0.970074 13.1527 2.38183 18.5018 7.75111 19.7413C13.131 20.9834 18.4997 17.629 19.7415 12.2489C20.9829 6.8721 17.6337 1.50716 12.2596 0.260941L12.2401 0.256442C11.4863 0.0831478 10.7333 0 9.9911 0C5.45096 0.000333258 1.34457 3.11329 0.265811 7.71941Z" fill="white" fill-opacity="0.25"/>
<path d="M14.9638 6.91455C14.5927 7.07871 14.1991 7.18653 13.7962 7.23444C14.2207 6.9803 14.5384 6.58052 14.69 6.10955C14.2911 6.34656 13.8545 6.51337 13.3991 6.60274C13.0147 6.19268 12.4775 5.9603 11.9155 5.96094C10.793 5.96094 9.88254 6.87107 9.88254 7.99409C9.88254 8.15342 9.90082 8.30792 9.93499 8.457C8.24472 8.3719 6.7473 7.56302 5.74431 6.33285C5.56373 6.64311 5.46882 6.99579 5.4693 7.35478C5.4693 8.06009 5.82832 8.68263 6.37369 9.04709C6.05085 9.03688 5.73513 8.9497 5.45284 8.79273C5.45253 8.80127 5.45253 8.80981 5.45253 8.81788C5.45253 9.80319 6.15333 10.6251 7.08365 10.8117C6.90905 10.859 6.72895 10.8828 6.54807 10.8827C6.4167 10.8827 6.28921 10.8706 6.16529 10.8468C6.42415 11.6543 7.17449 12.2423 8.06443 12.2584C7.34428 12.8236 6.45496 13.1302 5.53949 13.1289C5.37747 13.1291 5.21558 13.1195 5.05469 13.1003C5.98409 13.6978 7.06592 14.0149 8.1708 14.0137C11.9105 14.0137 13.9553 10.9159 13.9553 8.22951C13.9553 8.14161 13.9532 8.05341 13.9493 7.96645C14.3473 7.67891 14.6908 7.3227 14.9638 6.91455Z" fill="white"/>
</svg>
