<svg width="16" height="16" viewBox="0 0 16 16" fill="none" xmlns="http://www.w3.org/2000/svg">
<path d="M6.00004 2.0013V0.667969H4.66671V2.0013H2.00004C1.63185 2.0013 1.33337 2.29978 1.33337 2.66797V13.3346C1.33337 13.7028 1.63185 14.0013 2.00004 14.0013H14C14.3682 14.0013 14.6667 13.7028 14.6667 13.3346V2.66797C14.6667 2.29978 14.3682 2.0013 14 2.0013H11.3334V0.667969H10V2.0013H6.00004ZM2.66671 6.66797H13.3334V12.668H2.66671V6.66797ZM2.66671 3.33464H4.66671V4.0013H6.00004V3.33464H10V4.0013H11.3334V3.33464H13.3334V5.33464H2.66671V3.33464ZM6.58579 7.3109L8.00004 8.72517L9.41417 7.3109L10.357 8.25364L8.94284 9.66804L10.357 11.0821L9.41424 12.0249L8.00004 10.6108L6.58574 12.0249L5.64299 11.082L7.05717 9.66804L5.64295 8.25364L6.58579 7.3109Z" fill="white"/>
</svg>
