<svg width="16" height="16" viewBox="0 0 16 16" fill="none" xmlns="http://www.w3.org/2000/svg">
<path fill-rule="evenodd" clip-rule="evenodd" d="M12.6276 2.80729C12.286 2.71576 11.9948 2.49228 11.818 2.18601L10.9409 0.666942C10.5727 0.0291676 9.75718 -0.189349 9.1194 0.17887L7.60034 1.0559C7.29407 1.23273 6.9301 1.28064 6.5885 1.18911L4.89432 0.73516C4.18298 0.544556 3.4518 0.9667 3.2612 1.67805L2.80725 3.37222C2.71571 3.71382 2.49223 4.00507 2.18596 4.18189L0.666942 5.0589C0.0291677 5.42712 -0.189349 6.24264 0.17887 6.88041L1.05588 8.39943C1.2327 8.7057 1.28062 9.06967 1.18909 9.41127L0.735109 11.1055C0.544504 11.8169 0.966647 12.5481 1.67799 12.7387L3.37226 13.1926C3.71386 13.2842 4.00511 13.5077 4.18194 13.8139L5.0589 15.3329C5.42712 15.9706 6.24264 16.1892 6.88041 15.8209L8.39936 14.944C8.70563 14.7672 9.0696 14.7192 9.4112 14.8108L11.1055 15.2648C11.8168 15.4554 12.548 15.0332 12.7386 14.3219L13.1926 12.6276C13.2841 12.286 13.5076 11.9947 13.8139 11.8179L15.3329 10.9409C15.9706 10.5727 16.1892 9.75718 15.8209 9.1194L14.944 7.60041C14.7671 7.29414 14.7192 6.93017 14.8107 6.58857L15.2647 4.89437C15.4553 4.18303 15.0332 3.45186 14.3218 3.26125L12.6276 2.80729Z" fill="#FF793C"/>
<path d="M12.0483 5.95257L7.33427 10.6666L4.50586 7.83822L5.44867 6.89535L7.33427 8.78102L11.1055 5.00977L12.0483 5.95257Z" fill="#F0F0F0"/>
</svg>
