<svg width="18" height="18" viewBox="0 0 18 18" fill="none" xmlns="http://www.w3.org/2000/svg">
<g clip-path="url(#clip0_8960_42920)">
<path d="M3 9.94207V9H1.5V7.5H6.2741L8.4 6H11.0186L10.1997 3.75H8.25V2.25H11.25L12.0689 4.5H15V6.75H12.8878L13.9804 9.75165C15.7956 9.8073 17.25 11.2963 17.25 13.125C17.25 14.989 15.739 16.5 13.875 16.5C12.011 16.5 10.5 14.989 10.5 13.125C10.5 11.7542 11.3173 10.5742 12.4912 10.0458L11.5646 7.5H10.8538L9.6675 11.9025L9.6657 11.9017L9.66727 11.9059L7.47402 12.7042C7.49116 12.842 7.5 12.9825 7.5 13.125C7.5 14.989 5.98896 16.5 4.125 16.5C2.26104 16.5 0.75 14.989 0.75 13.125C0.75 11.6555 1.68916 10.4053 3 9.94207ZM4.5 9.77063C5.53213 9.8847 6.42398 10.4642 6.96103 11.2946L8.42873 10.7604L9.3024 7.5H8.89223L6.75 9H4.5V9.77063ZM4.125 15C5.16053 15 6 14.1605 6 13.125C6 12.0895 5.16053 11.25 4.125 11.25C3.08947 11.25 2.25 12.0895 2.25 13.125C2.25 14.1605 3.08947 15 4.125 15ZM13.875 15C14.9105 15 15.75 14.1605 15.75 13.125C15.75 12.0895 14.9105 11.25 13.875 11.25C12.8395 11.25 12 12.0895 12 13.125C12 14.1605 12.8395 15 13.875 15Z" fill="#000"/>
</g>
<defs>
<clipPath id="clip0_8960_42920">
<rect width="18" height="18" fill="#000"/>
</clipPath>
</defs>
</svg>
