<svg xmlns="http://www.w3.org/2000/svg" width="128" height="128" viewBox="0 0 128 128" fill="none">
  <g opacity="0.4">
    <path d="M12.0801 93.5C9.68866 92.1193 9.68866 89.8807 12.0801 88.5L68.3718 56C70.7632 54.6193 74.6406 54.6193 77.032 56L116.003 78.5C118.395 79.8807 118.395 82.1193 116.003 83.5L59.7115 116C57.3201 117.381 53.4427 117.381 51.0513 116L12.0801 93.5Z" fill="#636266" fill-opacity="0.3"/>
    <path fill-rule="evenodd" clip-rule="evenodd" d="M12.044 74.2465C10.9049 73.5888 10.3084 72.7366 10.2544 71.8751L10.25 71.8756V68.6256H13.1193L68.3356 36.7465C70.7271 35.3658 74.6044 35.3658 76.9959 36.7465L115.324 58.875H117.795V61.875L117.757 61.872C117.704 62.7345 117.107 63.588 115.967 64.2465L59.6754 96.7465C57.2839 98.1272 53.4066 98.1272 51.0151 96.7465L12.044 74.2465Z" fill="url(#paint0_linear_3166_84)"/>
    <g filter="url(#filter0_i_3166_84)">
      <path d="M12.0801 71.25C9.68866 69.8693 9.68866 67.6307 12.0801 66.25L68.3718 33.75C70.7632 32.3693 74.6406 32.3693 77.032 33.75L116.003 56.25C118.395 57.6307 118.395 59.8693 116.003 61.25L59.7115 93.75C57.3201 95.1307 53.4427 95.1307 51.0513 93.75L12.0801 71.25Z" fill="url(#paint1_linear_3166_84)"/>
    </g>
    <path opacity="0.5" d="M49.2705 63.6649C49.278 63.1127 50.0596 62.6615 51.0161 62.6571L83.5794 62.5082C84.5359 62.5039 85.3052 62.948 85.2976 63.5002C85.29 64.0525 84.5085 64.5037 83.552 64.508L50.9886 64.6569C50.0321 64.6613 49.2629 64.2172 49.2705 63.6649Z" fill="#D9D9D9"/>
    <path fill-rule="evenodd" clip-rule="evenodd" d="M54.7913 29.3164L79.2435 15.1989C81.9451 13.6391 86.3254 13.6391 89.027 15.1989L99.8314 21.4368C102.533 22.9966 102.533 25.5255 99.8314 27.0853L75.3791 41.2028C72.6775 42.7626 68.2973 42.7626 65.5956 41.2028L54.7912 34.9649C52.0896 33.4051 52.0896 30.8762 54.7913 29.3164ZM54.4665 35.1524C51.5855 33.489 51.5855 30.7922 54.4665 29.1289L78.9188 15.0114C81.7997 13.348 86.4708 13.348 89.3517 15.0114L100.156 21.2493C103.037 22.9126 103.037 25.6094 100.156 27.2728L75.7039 41.3903C72.8229 43.0536 68.1519 43.0536 65.2709 41.3903L54.4665 35.1524ZM77.6058 23.8375L77.5453 28.2471L85.1835 28.2121L85.1784 28.5871L77.5401 28.622L77.4828 32.8028L77.1078 32.8046L77.1652 28.6237L69.6499 28.6581L69.655 28.2831L77.1703 28.2488L77.2308 23.8392L77.6058 23.8375Z" fill="#D9D9D9"/>
    <path opacity="0.5" fill-rule="evenodd" clip-rule="evenodd" d="M20.1471 68.25C20.8646 68.6642 20.8646 69.3358 20.1471 69.75C19.4297 70.1642 18.2665 70.1642 17.549 69.75C16.8316 69.3358 16.8316 68.6642 17.549 68.25C18.2665 67.8358 19.4297 67.8358 20.1471 68.25ZM24.0442 66C24.7617 66.4142 24.7617 67.0858 24.0442 67.5C23.3268 67.9142 22.1636 67.9142 21.4462 67.5C20.7287 67.0858 20.7287 66.4142 21.4462 66C22.1636 65.5858 23.3268 65.5858 24.0442 66ZM27.9413 65.25C28.6588 64.8358 28.6588 64.1642 27.9413 63.75C27.2239 63.3358 26.0607 63.3358 25.3433 63.75C24.6258 64.1642 24.6258 64.8358 25.3433 65.25C26.0607 65.6642 27.2239 65.6642 27.9413 65.25Z" fill="#D9D9D9"/>
    <path fill-rule="evenodd" clip-rule="evenodd" d="M37.5606 83.188L24.8073 90.5511C24.0301 90.9998 24.0301 91.7274 24.8073 92.1761L38.0411 99.8167C38.8184 100.265 40.0785 100.265 40.8557 99.8167L53.609 92.4535C54.3862 92.0048 54.3862 91.2773 53.609 90.8285L40.3752 83.188C39.5979 82.7393 38.3378 82.7393 37.5606 83.188ZM24.4825 90.3636C23.526 90.9159 23.526 91.8113 24.4825 92.3636L37.7164 100.004C38.673 100.556 40.2239 100.556 41.1805 100.004L53.9338 92.641C54.8903 92.0888 54.8903 91.1933 53.9338 90.641L40.6999 83.0005C39.7433 82.4482 38.1924 82.4482 37.2358 83.0005L24.4825 90.3636Z" fill="#D9D9D9"/>
  </g>
  <defs>
    <filter id="filter0_i_3166_84" x="10.2865" y="32.7145" width="107.51" height="62.071" filterUnits="userSpaceOnUse" color-interpolation-filters="sRGB">
      <feFlood flood-opacity="0" result="BackgroundImageFix"/>
      <feBlend mode="normal" in="SourceGraphic" in2="BackgroundImageFix" result="shape"/>
      <feColorMatrix in="SourceAlpha" type="matrix" values="0 0 0 0 0 0 0 0 0 0 0 0 0 0 0 0 0 0 127 0" result="hardAlpha"/>
      <feOffset dy="-0.5"/>
      <feComposite in2="hardAlpha" operator="arithmetic" k2="-1" k3="1"/>
      <feColorMatrix type="matrix" values="0 0 0 0 1 0 0 0 0 1 0 0 0 0 1 0 0 0 0.1 0"/>
      <feBlend mode="normal" in2="shape" result="effect1_innerShadow_3166_84"/>
    </filter>
    <linearGradient id="paint0_linear_3166_84" x1="15.2246" y1="77.573" x2="106.765" y2="70.056" gradientUnits="userSpaceOnUse">
      <stop stop-color="#636363"/>
      <stop offset="1" stop-color="#2F2F32"/>
    </linearGradient>
    <linearGradient id="paint1_linear_3166_84" x1="12.75" y1="66.125" x2="99.8771" y2="98.4857" gradientUnits="userSpaceOnUse">
      <stop stop-color="#707070"/>
      <stop offset="1" stop-color="#3A3A3A"/>
    </linearGradient>
  </defs>
</svg>