<svg width="30" height="30" viewBox="0 0 30 30" fill="none" xmlns="http://www.w3.org/2000/svg">
<g filter="url(#filter0_b_2565_83183)">
<circle cx="15" cy="15" r="15" fill="black" fill-opacity="0.2"/>
<circle cx="15" cy="15" r="15" fill="white" fill-opacity="0.3"/>
</g>
<path d="M23.4375 17.7141V16.8323C23.4375 16.7508 23.3614 16.6917 23.2866 16.7142L19.2615 17.918C19.2398 17.9236 19.2207 17.9362 19.2058 17.9531C18.7747 18.4458 18.4083 18.7763 18.3113 18.8639L18.3045 18.87C18.0544 19.0894 17.7444 19.2089 17.4182 19.2089H15.9609V17.6719H17.1191C17.149 17.6719 17.1776 17.6606 17.1993 17.6409L17.3488 17.4989C17.4127 17.4384 17.4889 17.3653 17.58 17.2711C17.5877 17.2631 17.5955 17.255 17.6035 17.2468C17.6513 17.1975 17.7025 17.1448 17.7526 17.0869C17.8124 17.0264 17.8709 16.9589 17.9252 16.8928C18.0163 16.7916 18.1033 16.6861 18.1944 16.575C18.2596 16.5019 18.3195 16.4189 18.3779 16.3359C18.4432 16.2572 18.5071 16.1686 18.5669 16.0842C18.5891 16.0504 18.6128 16.0162 18.637 15.9812C18.6601 15.9479 18.6836 15.9139 18.7069 15.8789C18.7504 15.8114 18.7939 15.7397 18.8306 15.6722C18.9448 15.4894 19.0413 15.2939 19.1228 15.0984C19.1603 15.0147 19.1902 14.9265 19.2193 14.8409C19.223 14.8301 19.2266 14.8194 19.2302 14.8088C19.2628 14.7089 19.29 14.6147 19.3104 14.5148C19.3594 14.28 19.3702 14.0466 19.3485 13.8131C19.3431 13.74 19.3376 13.6683 19.3214 13.6008V13.5895C19.3159 13.5417 19.305 13.4883 19.29 13.4391C19.2411 13.2113 19.165 12.9834 19.0684 12.7598C19.0358 12.6769 18.9978 12.5925 18.9611 12.5152C18.8741 12.3478 18.783 12.1805 18.6797 12.0187C18.6589 11.9846 18.6361 11.95 18.6132 11.9155C18.5956 11.8889 18.578 11.8623 18.5614 11.8359C18.496 11.7315 18.4224 11.6309 18.351 11.5332C18.3349 11.5112 18.3189 11.4893 18.3031 11.4675C18.261 11.4103 18.2149 11.353 18.1684 11.2954C18.143 11.2639 18.1175 11.2322 18.0925 11.2003C18.0217 11.1117 17.9524 11.0273 17.8817 10.9444C17.6289 10.6491 17.3638 10.3819 17.1273 10.1541C17.0838 10.1091 17.0362 10.0641 16.9873 10.0205C16.8038 9.8475 16.6365 9.69702 16.4965 9.58032C16.4545 9.54684 16.4167 9.51385 16.3816 9.48315C16.3577 9.46227 16.335 9.44244 16.313 9.42423C16.2706 9.39151 16.2337 9.36249 16.2028 9.33813C16.1832 9.32268 16.166 9.30911 16.1513 9.29765C16.1404 9.28922 16.1281 9.2836 16.1159 9.27936L15.9609 9.23439V7.90688C15.9609 7.69032 15.8767 7.49626 15.7421 7.35421C15.6075 7.21219 15.4199 7.125 15.2133 7.125C14.8 7.125 14.4656 7.47515 14.4656 7.90688V8.80124L14.3882 8.77876L14.1775 8.71687L13.9858 8.66204L13.984 8.66151C13.984 8.66151 13.9819 8.66061 13.9804 8.66061H13.9763L12.5217 8.25281C12.4578 8.23453 12.4034 8.30624 12.4361 8.36672L12.6686 8.81109C12.6817 8.84524 12.6985 8.8794 12.7156 8.91449C12.7268 8.93721 12.7381 8.96031 12.7487 8.98407C12.7868 9.0628 12.8249 9.14578 12.8615 9.22875C12.8942 9.30186 12.9268 9.37359 12.9649 9.45234C12.9809 9.48937 12.9972 9.52685 13.0138 9.56486C13.0745 9.70442 13.1384 9.85118 13.2014 10.0092C13.2558 10.1428 13.3101 10.2764 13.3577 10.4156C13.4882 10.7658 13.6119 11.1398 13.7194 11.5238C13.7461 11.6097 13.7674 11.6928 13.7891 11.7771C13.7983 11.8128 13.8075 11.8488 13.8172 11.8852L13.8321 11.9527C13.8757 12.1313 13.9138 12.3084 13.9409 12.487C13.9626 12.6094 13.9831 12.7261 13.9939 12.8442C14.0102 12.9778 14.0265 13.1114 14.032 13.245C14.0429 13.3673 14.0483 13.4953 14.0483 13.6177C14.0483 13.9298 14.0211 14.2308 13.9572 14.5148C13.9532 14.5301 13.9492 14.5456 13.9452 14.5611C13.9273 14.6303 13.9088 14.7019 13.8865 14.7708C13.8665 14.8445 13.8405 14.9183 13.8134 14.9948C13.8038 15.0219 13.7942 15.0494 13.7846 15.0773C13.7828 15.0823 13.781 15.0873 13.7792 15.0923C13.7592 15.148 13.7389 15.2047 13.7139 15.2602C13.5793 15.5948 13.4121 15.9281 13.2395 16.2403C12.9866 16.703 12.7325 17.1094 12.5544 17.3709C12.5434 17.3879 12.5328 17.4039 12.5226 17.4194C12.5098 17.4387 12.4977 17.4571 12.4864 17.475C12.4307 17.5566 12.4878 17.6719 12.5842 17.6719H14.4656V19.2089H12.5625C12.0514 19.2089 11.5783 18.9094 11.3499 18.4298C11.2317 18.1894 11.1855 17.925 11.2127 17.6663C11.2194 17.5889 11.1637 17.5158 11.0876 17.5158H7.24326C7.178 17.5158 7.125 17.5706 7.125 17.6381V17.7197C7.125 20.2566 9.10562 22.3125 11.5498 22.3125H18.4459C19.7386 22.3125 20.4726 21.0939 21.194 19.8962C21.3951 19.5623 21.5953 19.2301 21.8063 18.9262C22.1855 18.3806 23.0977 17.9475 23.3641 17.8294C23.4076 17.8097 23.4375 17.7647 23.4375 17.7141Z" fill="white"/>
<path d="M8.32398 15.296L8.26841 15.3844C8.21943 15.4607 8.27369 15.5625 8.36634 15.5625H11.8128C11.8512 15.5625 11.8869 15.5438 11.9081 15.5116C11.9531 15.442 11.9955 15.3697 12.0338 15.296C12.3317 14.7897 12.5963 14.242 12.693 13.8375C12.9193 12.8545 12.4362 11.2755 11.8763 10.0059C11.8393 9.92156 11.7242 9.91353 11.6752 9.9912L8.32398 15.296Z" fill="white"/>
<defs>
<filter id="filter0_b_2565_83183" x="-10" y="-10" width="50" height="50" filterUnits="userSpaceOnUse" color-interpolation-filters="sRGB">
<feFlood flood-opacity="0" result="BackgroundImageFix"/>
<feGaussianBlur in="BackgroundImageFix" stdDeviation="5"/>
<feComposite in2="SourceAlpha" operator="in" result="effect1_backgroundBlur_2565_83183"/>
<feBlend mode="normal" in="SourceGraphic" in2="effect1_backgroundBlur_2565_83183" result="shape"/>
</filter>
</defs>
</svg>
