<svg width="16" height="16" viewBox="0 0 16 16" fill="none" xmlns="http://www.w3.org/2000/svg">
  <path d="M8.00016 14.6668C4.31826 14.6668 1.3335 11.682 1.3335 8.00016C1.3335 4.31826 4.31826 1.3335 8.00016 1.3335C11.682 1.3335 14.6668 4.31826 14.6668 8.00016C14.6668 11.682 11.682 14.6668 8.00016 14.6668ZM8.00016 13.3335C10.9457 13.3335 13.3335 10.9457 13.3335 8.00016C13.3335 5.05464 10.9457 2.66683 8.00016 2.66683C5.05464 2.66683 2.66683 5.05464 2.66683 8.00016C2.66683 10.9457 5.05464 13.3335 8.00016 13.3335ZM7.3335 10.0002H8.66683V11.3335H7.3335V10.0002ZM8.66683 8.90356V9.3335H7.3335V8.3335C7.3335 7.9653 7.63196 7.66683 8.00016 7.66683C8.55243 7.66683 9.00016 7.2191 9.00016 6.66683C9.00016 6.11454 8.55243 5.66683 8.00016 5.66683C7.51503 5.66683 7.11056 6.01232 7.01936 6.47068L5.7117 6.20914C5.92441 5.13962 6.86816 4.3335 8.00016 4.3335C9.28883 4.3335 10.3335 5.37816 10.3335 6.66683C10.3335 7.72383 9.63063 8.6167 8.66683 8.90356Z" fill="#808080"/>
</svg>
