<svg width="16" height="16" viewBox="0 0 16 16" fill="none" xmlns="http://www.w3.org/2000/svg">
<path d="M4.66718 4.66671V2.00004C4.66718 1.63185 4.96565 1.33337 5.33384 1.33337H14.0005C14.3687 1.33337 14.6672 1.63185 14.6672 2.00004V10.6667C14.6672 11.0349 14.3687 11.3334 14.0005 11.3334H11.334V13.995C11.334 14.366 11.0347 14.6667 10.6623 14.6667H2.0055C1.63456 14.6667 1.33398 14.3674 1.33398 13.995L1.33582 5.33836C1.3359 4.96742 1.63518 4.66671 2.00748 4.66671H4.66718ZM6.00051 4.66671H10.6625C11.0333 4.66671 11.334 4.96599 11.334 5.33836V10H13.3339V2.66671H6.00051V4.66671ZM2.66902 6.00004L2.66746 13.3334H10.0007V6.00004H2.66902Z" fill="#808080"/>
</svg>
