<svg width="18" height="18" viewBox="0 0 18 18" fill="none" xmlns="http://www.w3.org/2000/svg">
<path d="M3.64096 11.5831C3.47932 10.8801 3.39347 10.1442 3.39347 9.38645C3.39347 5.57049 5.57046 2.30921 8.64344 1C11.7165 2.30921 13.8934 5.57049 13.8934 9.38645C13.8934 10.1442 13.8076 10.8801 13.646 11.5831L15.1611 12.9299C15.2959 13.0497 15.3262 13.2485 15.2335 13.4031L13.3906 16.4746C13.284 16.6522 13.0537 16.7098 12.8761 16.6032C12.8498 16.5875 12.8255 16.5685 12.8038 16.5468L11.1131 14.8561C10.9725 14.7155 10.7817 14.6364 10.5828 14.6364H6.70414C6.50522 14.6364 6.31446 14.7155 6.1738 14.8561L4.48309 16.5468C4.33664 16.6933 4.09921 16.6933 3.95276 16.5468C3.93108 16.5252 3.91214 16.5009 3.89637 16.4746L2.05345 13.4031C1.96067 13.2485 1.9911 13.0497 2.12588 12.9299L3.64096 11.5831ZM8.64344 9.38645C9.47189 9.38645 10.1434 8.7149 10.1434 7.88645C10.1434 7.05803 9.47189 6.38646 8.64344 6.38646C7.81507 6.38646 7.14344 7.05803 7.14344 7.88645C7.14344 8.7149 7.81507 9.38645 8.64344 9.38645Z" fill="#000"/>
</svg>
