<svg width="28" height="28" viewBox="0 0 28 28" fill="none" xmlns="http://www.w3.org/2000/svg">
<path d="M11.7354 24.2294L11.2474 22.4056C11.2038 22.245 11.0983 22.1081 10.954 22.0251C10.8097 21.9422 10.6384 21.9198 10.4776 21.9629C10.3165 22.0059 10.1791 22.1112 10.0956 22.2555C10.0121 22.3999 9.98933 22.5715 10.0323 22.7326L10.5153 24.5665C10.5366 24.6466 10.5735 24.7216 10.6239 24.7874C10.6743 24.8531 10.7372 24.9083 10.809 24.9496C10.8807 24.991 10.96 25.0178 11.0421 25.0285C11.1242 25.0391 11.2077 25.0335 11.2876 25.0118C11.369 24.9908 11.4454 24.9538 11.5122 24.9028C11.579 24.8519 11.6349 24.7881 11.6767 24.7151C11.7184 24.6422 11.7451 24.5617 11.7552 24.4782C11.7653 24.3948 11.7586 24.3102 11.7354 24.2294Z" fill="white"/>
<path d="M14.3839 24.2294L13.8958 22.4056C13.8522 22.245 13.7467 22.1081 13.6024 22.0251C13.4581 21.9422 13.2868 21.9198 13.126 21.9629C12.9649 22.0059 12.8275 22.1112 12.744 22.2555C12.6605 22.3999 12.6378 22.5715 12.6808 22.7326L13.1638 24.5665C13.1851 24.6466 13.222 24.7216 13.2724 24.7874C13.3228 24.8531 13.3856 24.9083 13.4574 24.9496C13.5292 24.991 13.6084 25.0178 13.6905 25.0285C13.7727 25.0391 13.8561 25.0335 13.9361 25.0118C14.0174 24.9908 14.0938 24.9538 14.1606 24.9028C14.2275 24.8519 14.2834 24.7881 14.3251 24.7151C14.3669 24.6422 14.3936 24.5617 14.4037 24.4782C14.4137 24.3948 14.407 24.3102 14.3839 24.2294Z" fill="white"/>
<path d="M17.1837 24.2294L16.6956 22.4056C16.652 22.245 16.5465 22.1081 16.4022 22.0251C16.2579 21.9422 16.0866 21.9198 15.9258 21.9629C15.7647 22.0059 15.6273 22.1112 15.5438 22.2555C15.4603 22.3999 15.4376 22.5715 15.4806 22.7326L15.9636 24.5665C15.9849 24.6466 16.0218 24.7216 16.0722 24.7874C16.1226 24.8531 16.1854 24.9083 16.2572 24.9496C16.329 24.991 16.4082 25.0178 16.4903 25.0285C16.5725 25.0391 16.6559 25.0335 16.7359 25.0118C16.8173 24.9908 16.8936 24.9538 16.9604 24.9028C17.0273 24.8519 17.0832 24.7881 17.1249 24.7151C17.1667 24.6422 17.1934 24.5617 17.2035 24.4782C17.2135 24.3948 17.2068 24.3102 17.1837 24.2294Z" fill="white"/>
<path d="M8.11588 23.358L9.02654 20.543H19.4236L20.6613 23.4435C20.6999 23.5378 20.7203 23.6385 20.7217 23.7403C20.7217 23.9405 20.6422 24.1324 20.5006 24.274C20.3591 24.4155 20.1671 24.495 19.967 24.495H7.4744C7.76248 24.163 7.98065 23.7762 8.11588 23.358ZM20.2538 19.2852H8.11337L6.91845 22.9705C6.79769 23.3458 6.56938 23.6773 6.26187 23.924L5.09462 24.8573C5.01337 24.9225 4.95436 25.0112 4.92572 25.1114C4.89709 25.2115 4.90024 25.3181 4.93475 25.4164C4.96926 25.5147 5.03342 25.5998 5.11838 25.6601C5.20334 25.7203 5.30491 25.7527 5.40907 25.7528H19.967C20.5007 25.7528 21.0126 25.5408 21.39 25.1634C21.7675 24.786 21.9795 24.2741 21.9795 23.7403C21.9794 23.4686 21.9238 23.1998 21.816 22.9504L20.2538 19.2852Z" fill="white"/>
<path d="M22.4648 19.2852H6.36484C6.19805 19.2852 6.03808 19.3514 5.92014 19.4694C5.8022 19.5873 5.73594 19.7473 5.73594 19.9141C5.73594 20.0809 5.8022 20.2408 5.92014 20.3588C6.03808 20.4767 6.19805 20.543 6.36484 20.543H22.4648C22.6316 20.543 22.7916 20.4767 22.9095 20.3588C23.0275 20.2408 23.0938 20.0809 23.0938 19.9141C23.0938 19.7473 23.0275 19.5873 22.9095 19.4694C22.7916 19.3514 22.6316 19.2852 22.4648 19.2852Z" fill="white"/>
<path d="M17.8105 19.2844H11.0184V18.7812C11.0184 18.4477 11.1509 18.1277 11.3868 17.8918C11.6226 17.656 11.9426 17.5234 12.2762 17.5234H16.5527C16.8863 17.5234 17.2063 17.656 17.4421 17.8918C17.678 18.1277 17.8105 18.4477 17.8105 18.7812V19.2844ZM16.5527 16.2656H12.2762C11.609 16.2656 10.9691 16.5307 10.4974 17.0024C10.0256 17.4742 9.76055 18.1141 9.76055 18.7812V20.5422H19.0684V18.7812C19.0684 18.1141 18.8033 17.4742 18.3315 17.0024C17.8598 16.5307 17.2199 16.2656 16.5527 16.2656Z" fill="white"/>
<path d="M12.2547 17.1941L10.3716 2.69414H14.464L16.3472 17.1941H12.2547Z" stroke="white" stroke-width="0.9"/>
<path d="M21.1563 3.73974L20.7767 4.71592C20.7003 4.90608 20.5863 5.07881 20.4414 5.22373C20.2966 5.36864 20.124 5.48274 19.9339 5.55916L18.9584 5.939C18.912 5.95741 18.8697 5.98481 18.8339 6.0196C18.7981 6.0544 18.7695 6.09592 18.7497 6.14178C18.73 6.18765 18.7195 6.23696 18.7188 6.28689C18.7181 6.33682 18.7273 6.3864 18.7458 6.43279C18.7649 6.48086 18.7936 6.52452 18.8301 6.56109C18.8667 6.59767 18.9103 6.62639 18.9584 6.64549L19.9339 7.02533C20.124 7.10175 20.2966 7.21585 20.4414 7.36076C20.5863 7.50568 20.7003 7.67841 20.7767 7.86857L21.1563 8.84475C21.1842 8.9156 21.2329 8.97639 21.2958 9.01923C21.3588 9.06207 21.4332 9.08497 21.5093 9.08497C21.5854 9.08497 21.6598 9.06207 21.7227 9.01923C21.7857 8.97639 21.8343 8.9156 21.8623 8.84475L22.2419 7.86857C22.3183 7.67841 22.4323 7.50568 22.5771 7.36076C22.722 7.21585 22.8946 7.10175 23.0846 7.02533L24.0602 6.64549C24.1066 6.62707 24.1489 6.59968 24.1847 6.56489C24.2205 6.53009 24.2491 6.48857 24.2688 6.44271C24.2886 6.39684 24.2991 6.34753 24.2998 6.2976C24.3004 6.24767 24.2913 6.19809 24.2728 6.15171C24.2537 6.10363 24.225 6.05997 24.1884 6.0234C24.1519 5.98682 24.1083 5.9581 24.0602 5.939L23.0846 5.55916C22.8946 5.48274 22.722 5.36864 22.5771 5.22373C22.4323 5.07881 22.3183 4.90608 22.2419 4.71592L21.8623 3.73974C21.8439 3.69332 21.8165 3.65099 21.7818 3.61517C21.747 3.57935 21.7055 3.55075 21.6597 3.53099C21.6138 3.51123 21.5645 3.50071 21.5146 3.50004C21.4647 3.49936 21.4152 3.50853 21.3688 3.52703C21.3208 3.54614 21.2772 3.57486 21.2406 3.61143C21.204 3.64801 21.1753 3.69167 21.1563 3.73974ZM3.49686 14.6632L3.06412 15.7458C2.98732 15.9363 2.87271 16.1092 2.72721 16.2542C2.58171 16.3991 2.40835 16.513 2.2176 16.589L1.13574 17.022C1.04274 17.0599 0.968546 17.1332 0.929415 17.2258C0.890284 17.3183 0.889399 17.4226 0.926956 17.5158C0.94562 17.5635 0.973738 17.607 1.00962 17.6435C1.0455 17.6801 1.0884 17.709 1.13574 17.7285L2.2176 18.1615C2.4087 18.2379 2.58229 18.3524 2.72781 18.498C2.87333 18.6436 2.98775 18.8173 3.06412 19.0086L3.49686 20.0911C3.53477 20.1842 3.60799 20.2584 3.70048 20.2975C3.79297 20.3367 3.8972 20.3376 3.99035 20.3C4.03803 20.2813 4.08144 20.2532 4.11798 20.2173C4.15451 20.1814 4.1834 20.1385 4.20292 20.0911L4.63567 19.0086C4.71161 18.8177 4.82545 18.6442 4.97029 18.4986C5.11514 18.353 5.28798 18.2384 5.47838 18.1615L6.56025 17.7285C6.60664 17.7101 6.64894 17.6827 6.68474 17.6479C6.72054 17.6131 6.74913 17.5716 6.76887 17.5257C6.78862 17.4799 6.79913 17.4305 6.79981 17.3806C6.80049 17.3307 6.79132 17.2811 6.77283 17.2347C6.75374 17.1866 6.72504 17.143 6.68848 17.1064C6.65193 17.0698 6.60829 17.0411 6.56025 17.022L5.47838 16.589C5.28834 16.5126 5.11572 16.3985 4.97089 16.2536C4.82607 16.1087 4.71204 15.9359 4.63567 15.7458L4.20292 14.6632C4.18451 14.6168 4.15714 14.5745 4.12237 14.5387C4.08759 14.5028 4.0461 14.4742 4.00026 14.4545C3.95443 14.4347 3.90515 14.4242 3.85525 14.4235C3.80534 14.4228 3.7558 14.432 3.70944 14.4505C3.6614 14.4696 3.61777 14.4983 3.58121 14.5349C3.54466 14.5715 3.51595 14.6152 3.49686 14.6632Z" fill="#784CFF"/>
</svg>
