<svg width="24" height="24" viewBox="0 0 24 24" fill="none" xmlns="http://www.w3.org/2000/svg">
<path d="M5.42215 14.3941C4.90317 14.583 4.32269 14.316 4.19998 13.7775C3.94818 12.6727 3.93316 11.523 4.1606 10.4051C4.45475 8.9593 5.14296 7.62304 6.14917 6.54401C7.15538 5.46499 8.44037 4.68523 9.86209 4.29096C10.9614 3.98609 12.1094 3.92088 13.2291 4.09498C13.7748 4.17983 14.0817 4.74028 13.9295 5.27117V5.27117C13.7772 5.80206 13.2229 6.10003 12.6741 6.03798C11.9134 5.95199 11.1402 6.012 10.3966 6.21822C9.33028 6.51393 8.36653 7.09874 7.61188 7.90801C6.85722 8.71728 6.34106 9.71947 6.12045 10.8038C5.96661 11.56 5.96068 12.3355 6.09953 13.0883C6.1997 13.6314 5.94113 14.2052 5.42215 14.3941V14.3941Z" fill="#000"/>
</svg>
