<svg width="25" height="24" viewBox="0 0 25 24" fill="none" xmlns="http://www.w3.org/2000/svg">
  <path d="M22.7125 5.65605C21.9491 5.99375 21.1395 6.21555 20.3106 6.31411C21.1839 5.79132 21.8374 4.9689 22.1493 4.00005C21.3287 4.48761 20.4305 4.83077 19.4938 5.01461C18.7031 4.17106 17.598 3.69303 16.4418 3.69434C14.1326 3.69434 12.2597 5.56661 12.2597 7.87683C12.2597 8.20458 12.2973 8.52242 12.3676 8.82909C8.89048 8.65404 5.81008 6.99005 3.74678 4.45941C3.37529 5.09767 3.18006 5.82318 3.18105 6.56167C3.18105 8.01259 3.91961 9.29324 5.0415 10.043C4.37738 10.022 3.72789 9.84264 3.14719 9.51973C3.14655 9.5373 3.14654 9.55487 3.14654 9.57148C3.14654 11.5984 4.5882 13.2892 6.502 13.6731C6.14281 13.7703 5.77233 13.8194 5.40022 13.8191C5.12997 13.8191 4.86772 13.7942 4.6128 13.7453C5.14532 15.4065 6.68886 16.6159 8.5196 16.6491C7.03813 17.8118 5.20869 18.4426 3.32543 18.4399C2.99212 18.4402 2.65909 18.4205 2.32812 18.3811C4.24004 19.6102 6.46552 20.2625 8.73842 20.2601C16.4316 20.2601 20.638 13.8875 20.638 8.36111C20.638 8.1803 20.6336 7.99886 20.6256 7.81997C21.4443 7.22845 22.151 6.49567 22.7125 5.65605Z" fill="#808080"/>
</svg>
