<svg width="128" height="128" viewBox="0 0 128 128" fill="none" xmlns="http://www.w3.org/2000/svg">
<g opacity="0.4" clip-path="url(#clip0_12682_5581)">
<path fill-rule="evenodd" clip-rule="evenodd" d="M90.5879 97.7593C103.551 88.8214 102.759 75.4866 88.2092 67.0865C72.8212 58.2023 47.8724 58.2023 32.4844 67.0865C17.0965 75.9707 17.0965 90.375 32.4845 99.2592C47.1634 107.734 70.5424 108.125 86.0231 100.431L99.7943 108.382C101.063 109.114 103.121 109.114 104.39 108.382C105.659 107.649 105.659 106.461 104.39 105.728L90.5879 97.7593Z" fill="#636266" fill-opacity="0.3"/>
<path fill-rule="evenodd" clip-rule="evenodd" d="M88.0998 48.8619C94.1053 52.3291 97.767 56.6371 99.0849 61.1296L99.6354 60.9676L99.6354 64.5694C99.7891 69.9316 96.6789 75.3191 90.3048 79.6536L103.103 87.0428L105.711 86.4969L105.711 89.2661C105.738 89.7661 105.421 90.2713 104.76 90.653C103.491 91.3857 101.434 91.3857 100.164 90.653L85.709 82.3071C70.2276 89.8964 46.9894 89.4722 32.3751 81.0346C24.8273 76.6769 20.9817 70.9912 20.8383 65.2802H20.8334L20.8334 62.2809L21.1042 62.2809C22.1013 57.3769 25.8582 52.6244 32.3751 48.8619C47.763 39.9776 72.7119 39.9776 88.0998 48.8619Z" fill="url(#paint0_linear_12682_5581)"/>
<path fill-rule="evenodd" clip-rule="evenodd" d="M90.2432 76.7648C103.369 67.8266 102.628 54.4186 88.0207 45.9849C72.6328 37.1007 47.6839 37.1007 32.296 45.9849C16.908 54.8692 16.908 69.2734 32.296 78.1576C46.9168 86.599 70.1691 87.0198 85.6505 79.4201L100.163 87.7991C101.433 88.5319 103.49 88.5319 104.759 87.7991C106.028 87.0664 106.028 85.8784 104.759 85.1457L90.2432 76.7648Z" fill="url(#paint1_linear_12682_5581)"/>
<path d="M85.5323 47.1574C99.553 55.2523 99.553 68.3766 85.5323 76.4715C71.5116 84.5664 48.7795 84.5664 34.7588 76.4715C20.7381 68.3766 20.7381 55.2523 34.7588 47.1574C48.7795 39.0625 71.5116 39.0625 85.5323 47.1574Z" fill="url(#paint2_linear_12682_5581)"/>
<path fill-rule="evenodd" clip-rule="evenodd" d="M41.3949 81.7281L35.5612 85.0962C31.3972 87.5003 31.3972 91.3981 35.5612 93.8022C39.7253 96.2063 46.4765 96.2063 50.6406 93.8022L56.4743 90.4342C60.6383 88.03 60.6383 84.1322 56.4743 81.7281C52.3102 79.324 45.559 79.324 41.3949 81.7281ZM35.2365 84.9087C30.8931 87.4164 30.8931 91.4821 35.2365 93.9897C39.5799 96.4974 46.6219 96.4974 50.9653 93.9897L56.799 90.6217C61.1424 88.114 61.1424 84.0483 56.799 81.5406C52.4556 79.0329 45.4136 79.0329 41.0702 81.5406L35.2365 84.9087Z" fill="white"/>
<path fill-rule="evenodd" clip-rule="evenodd" d="M48.9123 31.5664L73.3646 17.4489C76.0662 15.8891 80.4464 15.8891 83.1481 17.4489L93.9525 23.6868C96.6541 25.2466 96.6541 27.7755 93.9525 29.3353L69.5002 43.4528C66.7986 45.0126 62.4184 45.0126 59.7167 43.4528L48.9123 37.2149C46.2107 35.6551 46.2107 33.1262 48.9123 31.5664ZM48.5876 37.4024C45.7066 35.739 45.7066 33.0422 48.5876 31.3789L73.0398 17.2614C75.9208 15.598 80.5918 15.598 83.4728 17.2614L94.2772 23.4993C97.1582 25.1626 97.1582 27.8594 94.2772 29.5228L69.825 43.6403C66.944 45.3036 62.273 45.3036 59.392 43.6403L48.5876 37.4024ZM71.7269 26.0875L71.6664 30.4971L79.3046 30.4621L79.2995 30.8371L71.6612 30.872L71.6039 35.0528L71.2289 35.0546L71.2862 30.8737L63.771 30.9081L63.7761 30.5331L71.2914 30.4988L71.3519 26.0892L71.7269 26.0875Z" fill="#D9D9D9"/>
<path opacity="0.5" fill-rule="evenodd" clip-rule="evenodd" d="M84.4065 52.7496C84.8848 52.4735 85.6603 52.4735 86.1386 52.7496C94.708 57.6972 94.708 65.7188 86.1386 70.6664C85.6603 70.9425 84.8848 70.9425 84.4065 70.6664C83.9282 70.3903 83.9282 69.9425 84.4065 69.6664C92.0194 65.2711 92.0194 58.1449 84.4065 53.7496C83.9282 53.4735 83.9282 53.0258 84.4065 52.7496Z" fill="#D9D9D9"/>
</g>
<defs>
<linearGradient id="paint0_linear_12682_5581" x1="20.1262" y1="69.9377" x2="67.7449" y2="37.0012" gradientUnits="userSpaceOnUse">
<stop stop-color="#636363"/>
<stop offset="1" stop-color="#2F2F32"/>
</linearGradient>
<linearGradient id="paint1_linear_12682_5581" x1="23.0856" y1="55.6267" x2="98.5459" y2="56.6582" gradientUnits="userSpaceOnUse">
<stop stop-color="#707070"/>
<stop offset="1" stop-color="#3A3A3A"/>
</linearGradient>
<linearGradient id="paint2_linear_12682_5581" x1="99.5904" y1="61.813" x2="47.7985" y2="20.5111" gradientUnits="userSpaceOnUse">
<stop stop-color="#333232"/>
<stop offset="1" stop-color="#3F3F3F" stop-opacity="0"/>
</linearGradient>
<clipPath id="clip0_12682_5581">
<rect width="128" height="128" fill="white"/>
</clipPath>
</defs>
</svg>
